%TF.GenerationSoftware,KiCad,Pcbnew,8.99.0-2433-g53022ab347*%
%TF.CreationDate,2024-09-29T16:39:53+02:00*%
%TF.ProjectId,BlinkyLoopSAO_2x2_panel,426c696e-6b79-44c6-9f6f-7053414f5f32,1.0*%
%TF.SameCoordinates,PX2faf080PY2faf080*%
%TF.FileFunction,AssemblyDrawing,Bot*%
%FSLAX46Y46*%
G04 Gerber Fmt 4.6, Leading zero omitted, Abs format (unit mm)*
G04 Created by KiCad (PCBNEW 8.99.0-2433-g53022ab347) date 2024-09-29 16:39:53*
%MOMM*%
%LPD*%
G01*
G04 APERTURE LIST*
%ADD10C,0.150000*%
G04 APERTURE END LIST*
D10*
X39704762Y-20807200D02*
X39561905Y-20854819D01*
X39561905Y-20854819D02*
X39323810Y-20854819D01*
X39323810Y-20854819D02*
X39228572Y-20807200D01*
X39228572Y-20807200D02*
X39180953Y-20759580D01*
X39180953Y-20759580D02*
X39133334Y-20664342D01*
X39133334Y-20664342D02*
X39133334Y-20569104D01*
X39133334Y-20569104D02*
X39180953Y-20473866D01*
X39180953Y-20473866D02*
X39228572Y-20426247D01*
X39228572Y-20426247D02*
X39323810Y-20378628D01*
X39323810Y-20378628D02*
X39514286Y-20331009D01*
X39514286Y-20331009D02*
X39609524Y-20283390D01*
X39609524Y-20283390D02*
X39657143Y-20235771D01*
X39657143Y-20235771D02*
X39704762Y-20140533D01*
X39704762Y-20140533D02*
X39704762Y-20045295D01*
X39704762Y-20045295D02*
X39657143Y-19950057D01*
X39657143Y-19950057D02*
X39609524Y-19902438D01*
X39609524Y-19902438D02*
X39514286Y-19854819D01*
X39514286Y-19854819D02*
X39276191Y-19854819D01*
X39276191Y-19854819D02*
X39133334Y-19902438D01*
X38561905Y-20854819D02*
X38657143Y-20807200D01*
X38657143Y-20807200D02*
X38704762Y-20759580D01*
X38704762Y-20759580D02*
X38752381Y-20664342D01*
X38752381Y-20664342D02*
X38752381Y-20378628D01*
X38752381Y-20378628D02*
X38704762Y-20283390D01*
X38704762Y-20283390D02*
X38657143Y-20235771D01*
X38657143Y-20235771D02*
X38561905Y-20188152D01*
X38561905Y-20188152D02*
X38419048Y-20188152D01*
X38419048Y-20188152D02*
X38323810Y-20235771D01*
X38323810Y-20235771D02*
X38276191Y-20283390D01*
X38276191Y-20283390D02*
X38228572Y-20378628D01*
X38228572Y-20378628D02*
X38228572Y-20664342D01*
X38228572Y-20664342D02*
X38276191Y-20759580D01*
X38276191Y-20759580D02*
X38323810Y-20807200D01*
X38323810Y-20807200D02*
X38419048Y-20854819D01*
X38419048Y-20854819D02*
X38561905Y-20854819D01*
X37657143Y-20854819D02*
X37752381Y-20807200D01*
X37752381Y-20807200D02*
X37800000Y-20711961D01*
X37800000Y-20711961D02*
X37800000Y-19854819D01*
X36847619Y-20854819D02*
X36847619Y-19854819D01*
X36847619Y-20807200D02*
X36942857Y-20854819D01*
X36942857Y-20854819D02*
X37133333Y-20854819D01*
X37133333Y-20854819D02*
X37228571Y-20807200D01*
X37228571Y-20807200D02*
X37276190Y-20759580D01*
X37276190Y-20759580D02*
X37323809Y-20664342D01*
X37323809Y-20664342D02*
X37323809Y-20378628D01*
X37323809Y-20378628D02*
X37276190Y-20283390D01*
X37276190Y-20283390D02*
X37228571Y-20235771D01*
X37228571Y-20235771D02*
X37133333Y-20188152D01*
X37133333Y-20188152D02*
X36942857Y-20188152D01*
X36942857Y-20188152D02*
X36847619Y-20235771D01*
X35990476Y-20807200D02*
X36085714Y-20854819D01*
X36085714Y-20854819D02*
X36276190Y-20854819D01*
X36276190Y-20854819D02*
X36371428Y-20807200D01*
X36371428Y-20807200D02*
X36419047Y-20711961D01*
X36419047Y-20711961D02*
X36419047Y-20331009D01*
X36419047Y-20331009D02*
X36371428Y-20235771D01*
X36371428Y-20235771D02*
X36276190Y-20188152D01*
X36276190Y-20188152D02*
X36085714Y-20188152D01*
X36085714Y-20188152D02*
X35990476Y-20235771D01*
X35990476Y-20235771D02*
X35942857Y-20331009D01*
X35942857Y-20331009D02*
X35942857Y-20426247D01*
X35942857Y-20426247D02*
X36419047Y-20521485D01*
X35514285Y-20854819D02*
X35514285Y-20188152D01*
X35514285Y-20378628D02*
X35466666Y-20283390D01*
X35466666Y-20283390D02*
X35419047Y-20235771D01*
X35419047Y-20235771D02*
X35323809Y-20188152D01*
X35323809Y-20188152D02*
X35228571Y-20188152D01*
X34609523Y-19854819D02*
X34609523Y-20569104D01*
X34609523Y-20569104D02*
X34657142Y-20711961D01*
X34657142Y-20711961D02*
X34752380Y-20807200D01*
X34752380Y-20807200D02*
X34895237Y-20854819D01*
X34895237Y-20854819D02*
X34990475Y-20854819D01*
X33704761Y-20188152D02*
X33704761Y-20854819D01*
X34133332Y-20188152D02*
X34133332Y-20711961D01*
X34133332Y-20711961D02*
X34085713Y-20807200D01*
X34085713Y-20807200D02*
X33990475Y-20854819D01*
X33990475Y-20854819D02*
X33847618Y-20854819D01*
X33847618Y-20854819D02*
X33752380Y-20807200D01*
X33752380Y-20807200D02*
X33704761Y-20759580D01*
X33228570Y-20854819D02*
X33228570Y-20188152D01*
X33228570Y-20283390D02*
X33180951Y-20235771D01*
X33180951Y-20235771D02*
X33085713Y-20188152D01*
X33085713Y-20188152D02*
X32942856Y-20188152D01*
X32942856Y-20188152D02*
X32847618Y-20235771D01*
X32847618Y-20235771D02*
X32799999Y-20331009D01*
X32799999Y-20331009D02*
X32799999Y-20854819D01*
X32799999Y-20331009D02*
X32752380Y-20235771D01*
X32752380Y-20235771D02*
X32657142Y-20188152D01*
X32657142Y-20188152D02*
X32514285Y-20188152D01*
X32514285Y-20188152D02*
X32419046Y-20235771D01*
X32419046Y-20235771D02*
X32371427Y-20331009D01*
X32371427Y-20331009D02*
X32371427Y-20854819D01*
X31895237Y-20188152D02*
X31895237Y-21188152D01*
X31895237Y-20235771D02*
X31799999Y-20188152D01*
X31799999Y-20188152D02*
X31609523Y-20188152D01*
X31609523Y-20188152D02*
X31514285Y-20235771D01*
X31514285Y-20235771D02*
X31466666Y-20283390D01*
X31466666Y-20283390D02*
X31419047Y-20378628D01*
X31419047Y-20378628D02*
X31419047Y-20664342D01*
X31419047Y-20664342D02*
X31466666Y-20759580D01*
X31466666Y-20759580D02*
X31514285Y-20807200D01*
X31514285Y-20807200D02*
X31609523Y-20854819D01*
X31609523Y-20854819D02*
X31799999Y-20854819D01*
X31799999Y-20854819D02*
X31895237Y-20807200D01*
X30609523Y-20807200D02*
X30704761Y-20854819D01*
X30704761Y-20854819D02*
X30895237Y-20854819D01*
X30895237Y-20854819D02*
X30990475Y-20807200D01*
X30990475Y-20807200D02*
X31038094Y-20711961D01*
X31038094Y-20711961D02*
X31038094Y-20331009D01*
X31038094Y-20331009D02*
X30990475Y-20235771D01*
X30990475Y-20235771D02*
X30895237Y-20188152D01*
X30895237Y-20188152D02*
X30704761Y-20188152D01*
X30704761Y-20188152D02*
X30609523Y-20235771D01*
X30609523Y-20235771D02*
X30561904Y-20331009D01*
X30561904Y-20331009D02*
X30561904Y-20426247D01*
X30561904Y-20426247D02*
X31038094Y-20521485D01*
X30133332Y-20854819D02*
X30133332Y-20188152D01*
X30133332Y-20378628D02*
X30085713Y-20283390D01*
X30085713Y-20283390D02*
X30038094Y-20235771D01*
X30038094Y-20235771D02*
X29942856Y-20188152D01*
X29942856Y-20188152D02*
X29847618Y-20188152D01*
X29752380Y-20950057D02*
X28990475Y-20950057D01*
X28847617Y-19854819D02*
X28228570Y-19854819D01*
X28228570Y-19854819D02*
X28561903Y-20235771D01*
X28561903Y-20235771D02*
X28419046Y-20235771D01*
X28419046Y-20235771D02*
X28323808Y-20283390D01*
X28323808Y-20283390D02*
X28276189Y-20331009D01*
X28276189Y-20331009D02*
X28228570Y-20426247D01*
X28228570Y-20426247D02*
X28228570Y-20664342D01*
X28228570Y-20664342D02*
X28276189Y-20759580D01*
X28276189Y-20759580D02*
X28323808Y-20807200D01*
X28323808Y-20807200D02*
X28419046Y-20854819D01*
X28419046Y-20854819D02*
X28704760Y-20854819D01*
X28704760Y-20854819D02*
X28799998Y-20807200D01*
X28799998Y-20807200D02*
X28847617Y-20759580D01*
X28038094Y-20950057D02*
X27276189Y-20950057D01*
X26704760Y-20331009D02*
X26561903Y-20378628D01*
X26561903Y-20378628D02*
X26514284Y-20426247D01*
X26514284Y-20426247D02*
X26466665Y-20521485D01*
X26466665Y-20521485D02*
X26466665Y-20664342D01*
X26466665Y-20664342D02*
X26514284Y-20759580D01*
X26514284Y-20759580D02*
X26561903Y-20807200D01*
X26561903Y-20807200D02*
X26657141Y-20854819D01*
X26657141Y-20854819D02*
X27038093Y-20854819D01*
X27038093Y-20854819D02*
X27038093Y-19854819D01*
X27038093Y-19854819D02*
X26704760Y-19854819D01*
X26704760Y-19854819D02*
X26609522Y-19902438D01*
X26609522Y-19902438D02*
X26561903Y-19950057D01*
X26561903Y-19950057D02*
X26514284Y-20045295D01*
X26514284Y-20045295D02*
X26514284Y-20140533D01*
X26514284Y-20140533D02*
X26561903Y-20235771D01*
X26561903Y-20235771D02*
X26609522Y-20283390D01*
X26609522Y-20283390D02*
X26704760Y-20331009D01*
X26704760Y-20331009D02*
X27038093Y-20331009D01*
X26038093Y-20854819D02*
X26038093Y-20188152D01*
X26038093Y-20378628D02*
X25990474Y-20283390D01*
X25990474Y-20283390D02*
X25942855Y-20235771D01*
X25942855Y-20235771D02*
X25847617Y-20188152D01*
X25847617Y-20188152D02*
X25752379Y-20188152D01*
X25419045Y-20854819D02*
X25419045Y-20188152D01*
X25419045Y-19854819D02*
X25466664Y-19902438D01*
X25466664Y-19902438D02*
X25419045Y-19950057D01*
X25419045Y-19950057D02*
X25371426Y-19902438D01*
X25371426Y-19902438D02*
X25419045Y-19854819D01*
X25419045Y-19854819D02*
X25419045Y-19950057D01*
X24514284Y-20854819D02*
X24514284Y-19854819D01*
X24514284Y-20807200D02*
X24609522Y-20854819D01*
X24609522Y-20854819D02*
X24799998Y-20854819D01*
X24799998Y-20854819D02*
X24895236Y-20807200D01*
X24895236Y-20807200D02*
X24942855Y-20759580D01*
X24942855Y-20759580D02*
X24990474Y-20664342D01*
X24990474Y-20664342D02*
X24990474Y-20378628D01*
X24990474Y-20378628D02*
X24942855Y-20283390D01*
X24942855Y-20283390D02*
X24895236Y-20235771D01*
X24895236Y-20235771D02*
X24799998Y-20188152D01*
X24799998Y-20188152D02*
X24609522Y-20188152D01*
X24609522Y-20188152D02*
X24514284Y-20235771D01*
X23609522Y-20188152D02*
X23609522Y-20997676D01*
X23609522Y-20997676D02*
X23657141Y-21092914D01*
X23657141Y-21092914D02*
X23704760Y-21140533D01*
X23704760Y-21140533D02*
X23799998Y-21188152D01*
X23799998Y-21188152D02*
X23942855Y-21188152D01*
X23942855Y-21188152D02*
X24038093Y-21140533D01*
X23609522Y-20807200D02*
X23704760Y-20854819D01*
X23704760Y-20854819D02*
X23895236Y-20854819D01*
X23895236Y-20854819D02*
X23990474Y-20807200D01*
X23990474Y-20807200D02*
X24038093Y-20759580D01*
X24038093Y-20759580D02*
X24085712Y-20664342D01*
X24085712Y-20664342D02*
X24085712Y-20378628D01*
X24085712Y-20378628D02*
X24038093Y-20283390D01*
X24038093Y-20283390D02*
X23990474Y-20235771D01*
X23990474Y-20235771D02*
X23895236Y-20188152D01*
X23895236Y-20188152D02*
X23704760Y-20188152D01*
X23704760Y-20188152D02*
X23609522Y-20235771D01*
X22752379Y-20807200D02*
X22847617Y-20854819D01*
X22847617Y-20854819D02*
X23038093Y-20854819D01*
X23038093Y-20854819D02*
X23133331Y-20807200D01*
X23133331Y-20807200D02*
X23180950Y-20711961D01*
X23180950Y-20711961D02*
X23180950Y-20331009D01*
X23180950Y-20331009D02*
X23133331Y-20235771D01*
X23133331Y-20235771D02*
X23038093Y-20188152D01*
X23038093Y-20188152D02*
X22847617Y-20188152D01*
X22847617Y-20188152D02*
X22752379Y-20235771D01*
X22752379Y-20235771D02*
X22704760Y-20331009D01*
X22704760Y-20331009D02*
X22704760Y-20426247D01*
X22704760Y-20426247D02*
X23180950Y-20521485D01*
X21847617Y-20854819D02*
X21847617Y-19854819D01*
X21847617Y-20807200D02*
X21942855Y-20854819D01*
X21942855Y-20854819D02*
X22133331Y-20854819D01*
X22133331Y-20854819D02*
X22228569Y-20807200D01*
X22228569Y-20807200D02*
X22276188Y-20759580D01*
X22276188Y-20759580D02*
X22323807Y-20664342D01*
X22323807Y-20664342D02*
X22323807Y-20378628D01*
X22323807Y-20378628D02*
X22276188Y-20283390D01*
X22276188Y-20283390D02*
X22228569Y-20235771D01*
X22228569Y-20235771D02*
X22133331Y-20188152D01*
X22133331Y-20188152D02*
X21942855Y-20188152D01*
X21942855Y-20188152D02*
X21847617Y-20235771D01*
X20847617Y-20854819D02*
X21419045Y-20854819D01*
X21133331Y-20854819D02*
X21133331Y-19854819D01*
X21133331Y-19854819D02*
X21228569Y-19997676D01*
X21228569Y-19997676D02*
X21323807Y-20092914D01*
X21323807Y-20092914D02*
X21419045Y-20140533D01*
X20466664Y-19950057D02*
X20419045Y-19902438D01*
X20419045Y-19902438D02*
X20323807Y-19854819D01*
X20323807Y-19854819D02*
X20085712Y-19854819D01*
X20085712Y-19854819D02*
X19990474Y-19902438D01*
X19990474Y-19902438D02*
X19942855Y-19950057D01*
X19942855Y-19950057D02*
X19895236Y-20045295D01*
X19895236Y-20045295D02*
X19895236Y-20140533D01*
X19895236Y-20140533D02*
X19942855Y-20283390D01*
X19942855Y-20283390D02*
X20514283Y-20854819D01*
X20514283Y-20854819D02*
X19895236Y-20854819D01*
X84704762Y-20807200D02*
X84561905Y-20854819D01*
X84561905Y-20854819D02*
X84323810Y-20854819D01*
X84323810Y-20854819D02*
X84228572Y-20807200D01*
X84228572Y-20807200D02*
X84180953Y-20759580D01*
X84180953Y-20759580D02*
X84133334Y-20664342D01*
X84133334Y-20664342D02*
X84133334Y-20569104D01*
X84133334Y-20569104D02*
X84180953Y-20473866D01*
X84180953Y-20473866D02*
X84228572Y-20426247D01*
X84228572Y-20426247D02*
X84323810Y-20378628D01*
X84323810Y-20378628D02*
X84514286Y-20331009D01*
X84514286Y-20331009D02*
X84609524Y-20283390D01*
X84609524Y-20283390D02*
X84657143Y-20235771D01*
X84657143Y-20235771D02*
X84704762Y-20140533D01*
X84704762Y-20140533D02*
X84704762Y-20045295D01*
X84704762Y-20045295D02*
X84657143Y-19950057D01*
X84657143Y-19950057D02*
X84609524Y-19902438D01*
X84609524Y-19902438D02*
X84514286Y-19854819D01*
X84514286Y-19854819D02*
X84276191Y-19854819D01*
X84276191Y-19854819D02*
X84133334Y-19902438D01*
X83561905Y-20854819D02*
X83657143Y-20807200D01*
X83657143Y-20807200D02*
X83704762Y-20759580D01*
X83704762Y-20759580D02*
X83752381Y-20664342D01*
X83752381Y-20664342D02*
X83752381Y-20378628D01*
X83752381Y-20378628D02*
X83704762Y-20283390D01*
X83704762Y-20283390D02*
X83657143Y-20235771D01*
X83657143Y-20235771D02*
X83561905Y-20188152D01*
X83561905Y-20188152D02*
X83419048Y-20188152D01*
X83419048Y-20188152D02*
X83323810Y-20235771D01*
X83323810Y-20235771D02*
X83276191Y-20283390D01*
X83276191Y-20283390D02*
X83228572Y-20378628D01*
X83228572Y-20378628D02*
X83228572Y-20664342D01*
X83228572Y-20664342D02*
X83276191Y-20759580D01*
X83276191Y-20759580D02*
X83323810Y-20807200D01*
X83323810Y-20807200D02*
X83419048Y-20854819D01*
X83419048Y-20854819D02*
X83561905Y-20854819D01*
X82657143Y-20854819D02*
X82752381Y-20807200D01*
X82752381Y-20807200D02*
X82800000Y-20711961D01*
X82800000Y-20711961D02*
X82800000Y-19854819D01*
X81847619Y-20854819D02*
X81847619Y-19854819D01*
X81847619Y-20807200D02*
X81942857Y-20854819D01*
X81942857Y-20854819D02*
X82133333Y-20854819D01*
X82133333Y-20854819D02*
X82228571Y-20807200D01*
X82228571Y-20807200D02*
X82276190Y-20759580D01*
X82276190Y-20759580D02*
X82323809Y-20664342D01*
X82323809Y-20664342D02*
X82323809Y-20378628D01*
X82323809Y-20378628D02*
X82276190Y-20283390D01*
X82276190Y-20283390D02*
X82228571Y-20235771D01*
X82228571Y-20235771D02*
X82133333Y-20188152D01*
X82133333Y-20188152D02*
X81942857Y-20188152D01*
X81942857Y-20188152D02*
X81847619Y-20235771D01*
X80990476Y-20807200D02*
X81085714Y-20854819D01*
X81085714Y-20854819D02*
X81276190Y-20854819D01*
X81276190Y-20854819D02*
X81371428Y-20807200D01*
X81371428Y-20807200D02*
X81419047Y-20711961D01*
X81419047Y-20711961D02*
X81419047Y-20331009D01*
X81419047Y-20331009D02*
X81371428Y-20235771D01*
X81371428Y-20235771D02*
X81276190Y-20188152D01*
X81276190Y-20188152D02*
X81085714Y-20188152D01*
X81085714Y-20188152D02*
X80990476Y-20235771D01*
X80990476Y-20235771D02*
X80942857Y-20331009D01*
X80942857Y-20331009D02*
X80942857Y-20426247D01*
X80942857Y-20426247D02*
X81419047Y-20521485D01*
X80514285Y-20854819D02*
X80514285Y-20188152D01*
X80514285Y-20378628D02*
X80466666Y-20283390D01*
X80466666Y-20283390D02*
X80419047Y-20235771D01*
X80419047Y-20235771D02*
X80323809Y-20188152D01*
X80323809Y-20188152D02*
X80228571Y-20188152D01*
X79609523Y-19854819D02*
X79609523Y-20569104D01*
X79609523Y-20569104D02*
X79657142Y-20711961D01*
X79657142Y-20711961D02*
X79752380Y-20807200D01*
X79752380Y-20807200D02*
X79895237Y-20854819D01*
X79895237Y-20854819D02*
X79990475Y-20854819D01*
X78704761Y-20188152D02*
X78704761Y-20854819D01*
X79133332Y-20188152D02*
X79133332Y-20711961D01*
X79133332Y-20711961D02*
X79085713Y-20807200D01*
X79085713Y-20807200D02*
X78990475Y-20854819D01*
X78990475Y-20854819D02*
X78847618Y-20854819D01*
X78847618Y-20854819D02*
X78752380Y-20807200D01*
X78752380Y-20807200D02*
X78704761Y-20759580D01*
X78228570Y-20854819D02*
X78228570Y-20188152D01*
X78228570Y-20283390D02*
X78180951Y-20235771D01*
X78180951Y-20235771D02*
X78085713Y-20188152D01*
X78085713Y-20188152D02*
X77942856Y-20188152D01*
X77942856Y-20188152D02*
X77847618Y-20235771D01*
X77847618Y-20235771D02*
X77799999Y-20331009D01*
X77799999Y-20331009D02*
X77799999Y-20854819D01*
X77799999Y-20331009D02*
X77752380Y-20235771D01*
X77752380Y-20235771D02*
X77657142Y-20188152D01*
X77657142Y-20188152D02*
X77514285Y-20188152D01*
X77514285Y-20188152D02*
X77419046Y-20235771D01*
X77419046Y-20235771D02*
X77371427Y-20331009D01*
X77371427Y-20331009D02*
X77371427Y-20854819D01*
X76895237Y-20188152D02*
X76895237Y-21188152D01*
X76895237Y-20235771D02*
X76799999Y-20188152D01*
X76799999Y-20188152D02*
X76609523Y-20188152D01*
X76609523Y-20188152D02*
X76514285Y-20235771D01*
X76514285Y-20235771D02*
X76466666Y-20283390D01*
X76466666Y-20283390D02*
X76419047Y-20378628D01*
X76419047Y-20378628D02*
X76419047Y-20664342D01*
X76419047Y-20664342D02*
X76466666Y-20759580D01*
X76466666Y-20759580D02*
X76514285Y-20807200D01*
X76514285Y-20807200D02*
X76609523Y-20854819D01*
X76609523Y-20854819D02*
X76799999Y-20854819D01*
X76799999Y-20854819D02*
X76895237Y-20807200D01*
X75609523Y-20807200D02*
X75704761Y-20854819D01*
X75704761Y-20854819D02*
X75895237Y-20854819D01*
X75895237Y-20854819D02*
X75990475Y-20807200D01*
X75990475Y-20807200D02*
X76038094Y-20711961D01*
X76038094Y-20711961D02*
X76038094Y-20331009D01*
X76038094Y-20331009D02*
X75990475Y-20235771D01*
X75990475Y-20235771D02*
X75895237Y-20188152D01*
X75895237Y-20188152D02*
X75704761Y-20188152D01*
X75704761Y-20188152D02*
X75609523Y-20235771D01*
X75609523Y-20235771D02*
X75561904Y-20331009D01*
X75561904Y-20331009D02*
X75561904Y-20426247D01*
X75561904Y-20426247D02*
X76038094Y-20521485D01*
X75133332Y-20854819D02*
X75133332Y-20188152D01*
X75133332Y-20378628D02*
X75085713Y-20283390D01*
X75085713Y-20283390D02*
X75038094Y-20235771D01*
X75038094Y-20235771D02*
X74942856Y-20188152D01*
X74942856Y-20188152D02*
X74847618Y-20188152D01*
X74752380Y-20950057D02*
X73990475Y-20950057D01*
X73847617Y-19854819D02*
X73228570Y-19854819D01*
X73228570Y-19854819D02*
X73561903Y-20235771D01*
X73561903Y-20235771D02*
X73419046Y-20235771D01*
X73419046Y-20235771D02*
X73323808Y-20283390D01*
X73323808Y-20283390D02*
X73276189Y-20331009D01*
X73276189Y-20331009D02*
X73228570Y-20426247D01*
X73228570Y-20426247D02*
X73228570Y-20664342D01*
X73228570Y-20664342D02*
X73276189Y-20759580D01*
X73276189Y-20759580D02*
X73323808Y-20807200D01*
X73323808Y-20807200D02*
X73419046Y-20854819D01*
X73419046Y-20854819D02*
X73704760Y-20854819D01*
X73704760Y-20854819D02*
X73799998Y-20807200D01*
X73799998Y-20807200D02*
X73847617Y-20759580D01*
X73038094Y-20950057D02*
X72276189Y-20950057D01*
X71704760Y-20331009D02*
X71561903Y-20378628D01*
X71561903Y-20378628D02*
X71514284Y-20426247D01*
X71514284Y-20426247D02*
X71466665Y-20521485D01*
X71466665Y-20521485D02*
X71466665Y-20664342D01*
X71466665Y-20664342D02*
X71514284Y-20759580D01*
X71514284Y-20759580D02*
X71561903Y-20807200D01*
X71561903Y-20807200D02*
X71657141Y-20854819D01*
X71657141Y-20854819D02*
X72038093Y-20854819D01*
X72038093Y-20854819D02*
X72038093Y-19854819D01*
X72038093Y-19854819D02*
X71704760Y-19854819D01*
X71704760Y-19854819D02*
X71609522Y-19902438D01*
X71609522Y-19902438D02*
X71561903Y-19950057D01*
X71561903Y-19950057D02*
X71514284Y-20045295D01*
X71514284Y-20045295D02*
X71514284Y-20140533D01*
X71514284Y-20140533D02*
X71561903Y-20235771D01*
X71561903Y-20235771D02*
X71609522Y-20283390D01*
X71609522Y-20283390D02*
X71704760Y-20331009D01*
X71704760Y-20331009D02*
X72038093Y-20331009D01*
X71038093Y-20854819D02*
X71038093Y-20188152D01*
X71038093Y-20378628D02*
X70990474Y-20283390D01*
X70990474Y-20283390D02*
X70942855Y-20235771D01*
X70942855Y-20235771D02*
X70847617Y-20188152D01*
X70847617Y-20188152D02*
X70752379Y-20188152D01*
X70419045Y-20854819D02*
X70419045Y-20188152D01*
X70419045Y-19854819D02*
X70466664Y-19902438D01*
X70466664Y-19902438D02*
X70419045Y-19950057D01*
X70419045Y-19950057D02*
X70371426Y-19902438D01*
X70371426Y-19902438D02*
X70419045Y-19854819D01*
X70419045Y-19854819D02*
X70419045Y-19950057D01*
X69514284Y-20854819D02*
X69514284Y-19854819D01*
X69514284Y-20807200D02*
X69609522Y-20854819D01*
X69609522Y-20854819D02*
X69799998Y-20854819D01*
X69799998Y-20854819D02*
X69895236Y-20807200D01*
X69895236Y-20807200D02*
X69942855Y-20759580D01*
X69942855Y-20759580D02*
X69990474Y-20664342D01*
X69990474Y-20664342D02*
X69990474Y-20378628D01*
X69990474Y-20378628D02*
X69942855Y-20283390D01*
X69942855Y-20283390D02*
X69895236Y-20235771D01*
X69895236Y-20235771D02*
X69799998Y-20188152D01*
X69799998Y-20188152D02*
X69609522Y-20188152D01*
X69609522Y-20188152D02*
X69514284Y-20235771D01*
X68609522Y-20188152D02*
X68609522Y-20997676D01*
X68609522Y-20997676D02*
X68657141Y-21092914D01*
X68657141Y-21092914D02*
X68704760Y-21140533D01*
X68704760Y-21140533D02*
X68799998Y-21188152D01*
X68799998Y-21188152D02*
X68942855Y-21188152D01*
X68942855Y-21188152D02*
X69038093Y-21140533D01*
X68609522Y-20807200D02*
X68704760Y-20854819D01*
X68704760Y-20854819D02*
X68895236Y-20854819D01*
X68895236Y-20854819D02*
X68990474Y-20807200D01*
X68990474Y-20807200D02*
X69038093Y-20759580D01*
X69038093Y-20759580D02*
X69085712Y-20664342D01*
X69085712Y-20664342D02*
X69085712Y-20378628D01*
X69085712Y-20378628D02*
X69038093Y-20283390D01*
X69038093Y-20283390D02*
X68990474Y-20235771D01*
X68990474Y-20235771D02*
X68895236Y-20188152D01*
X68895236Y-20188152D02*
X68704760Y-20188152D01*
X68704760Y-20188152D02*
X68609522Y-20235771D01*
X67752379Y-20807200D02*
X67847617Y-20854819D01*
X67847617Y-20854819D02*
X68038093Y-20854819D01*
X68038093Y-20854819D02*
X68133331Y-20807200D01*
X68133331Y-20807200D02*
X68180950Y-20711961D01*
X68180950Y-20711961D02*
X68180950Y-20331009D01*
X68180950Y-20331009D02*
X68133331Y-20235771D01*
X68133331Y-20235771D02*
X68038093Y-20188152D01*
X68038093Y-20188152D02*
X67847617Y-20188152D01*
X67847617Y-20188152D02*
X67752379Y-20235771D01*
X67752379Y-20235771D02*
X67704760Y-20331009D01*
X67704760Y-20331009D02*
X67704760Y-20426247D01*
X67704760Y-20426247D02*
X68180950Y-20521485D01*
X66847617Y-20854819D02*
X66847617Y-19854819D01*
X66847617Y-20807200D02*
X66942855Y-20854819D01*
X66942855Y-20854819D02*
X67133331Y-20854819D01*
X67133331Y-20854819D02*
X67228569Y-20807200D01*
X67228569Y-20807200D02*
X67276188Y-20759580D01*
X67276188Y-20759580D02*
X67323807Y-20664342D01*
X67323807Y-20664342D02*
X67323807Y-20378628D01*
X67323807Y-20378628D02*
X67276188Y-20283390D01*
X67276188Y-20283390D02*
X67228569Y-20235771D01*
X67228569Y-20235771D02*
X67133331Y-20188152D01*
X67133331Y-20188152D02*
X66942855Y-20188152D01*
X66942855Y-20188152D02*
X66847617Y-20235771D01*
X65847617Y-20854819D02*
X66419045Y-20854819D01*
X66133331Y-20854819D02*
X66133331Y-19854819D01*
X66133331Y-19854819D02*
X66228569Y-19997676D01*
X66228569Y-19997676D02*
X66323807Y-20092914D01*
X66323807Y-20092914D02*
X66419045Y-20140533D01*
X65466664Y-19950057D02*
X65419045Y-19902438D01*
X65419045Y-19902438D02*
X65323807Y-19854819D01*
X65323807Y-19854819D02*
X65085712Y-19854819D01*
X65085712Y-19854819D02*
X64990474Y-19902438D01*
X64990474Y-19902438D02*
X64942855Y-19950057D01*
X64942855Y-19950057D02*
X64895236Y-20045295D01*
X64895236Y-20045295D02*
X64895236Y-20140533D01*
X64895236Y-20140533D02*
X64942855Y-20283390D01*
X64942855Y-20283390D02*
X65514283Y-20854819D01*
X65514283Y-20854819D02*
X64895236Y-20854819D01*
X39704762Y-65807200D02*
X39561905Y-65854819D01*
X39561905Y-65854819D02*
X39323810Y-65854819D01*
X39323810Y-65854819D02*
X39228572Y-65807200D01*
X39228572Y-65807200D02*
X39180953Y-65759580D01*
X39180953Y-65759580D02*
X39133334Y-65664342D01*
X39133334Y-65664342D02*
X39133334Y-65569104D01*
X39133334Y-65569104D02*
X39180953Y-65473866D01*
X39180953Y-65473866D02*
X39228572Y-65426247D01*
X39228572Y-65426247D02*
X39323810Y-65378628D01*
X39323810Y-65378628D02*
X39514286Y-65331009D01*
X39514286Y-65331009D02*
X39609524Y-65283390D01*
X39609524Y-65283390D02*
X39657143Y-65235771D01*
X39657143Y-65235771D02*
X39704762Y-65140533D01*
X39704762Y-65140533D02*
X39704762Y-65045295D01*
X39704762Y-65045295D02*
X39657143Y-64950057D01*
X39657143Y-64950057D02*
X39609524Y-64902438D01*
X39609524Y-64902438D02*
X39514286Y-64854819D01*
X39514286Y-64854819D02*
X39276191Y-64854819D01*
X39276191Y-64854819D02*
X39133334Y-64902438D01*
X38561905Y-65854819D02*
X38657143Y-65807200D01*
X38657143Y-65807200D02*
X38704762Y-65759580D01*
X38704762Y-65759580D02*
X38752381Y-65664342D01*
X38752381Y-65664342D02*
X38752381Y-65378628D01*
X38752381Y-65378628D02*
X38704762Y-65283390D01*
X38704762Y-65283390D02*
X38657143Y-65235771D01*
X38657143Y-65235771D02*
X38561905Y-65188152D01*
X38561905Y-65188152D02*
X38419048Y-65188152D01*
X38419048Y-65188152D02*
X38323810Y-65235771D01*
X38323810Y-65235771D02*
X38276191Y-65283390D01*
X38276191Y-65283390D02*
X38228572Y-65378628D01*
X38228572Y-65378628D02*
X38228572Y-65664342D01*
X38228572Y-65664342D02*
X38276191Y-65759580D01*
X38276191Y-65759580D02*
X38323810Y-65807200D01*
X38323810Y-65807200D02*
X38419048Y-65854819D01*
X38419048Y-65854819D02*
X38561905Y-65854819D01*
X37657143Y-65854819D02*
X37752381Y-65807200D01*
X37752381Y-65807200D02*
X37800000Y-65711961D01*
X37800000Y-65711961D02*
X37800000Y-64854819D01*
X36847619Y-65854819D02*
X36847619Y-64854819D01*
X36847619Y-65807200D02*
X36942857Y-65854819D01*
X36942857Y-65854819D02*
X37133333Y-65854819D01*
X37133333Y-65854819D02*
X37228571Y-65807200D01*
X37228571Y-65807200D02*
X37276190Y-65759580D01*
X37276190Y-65759580D02*
X37323809Y-65664342D01*
X37323809Y-65664342D02*
X37323809Y-65378628D01*
X37323809Y-65378628D02*
X37276190Y-65283390D01*
X37276190Y-65283390D02*
X37228571Y-65235771D01*
X37228571Y-65235771D02*
X37133333Y-65188152D01*
X37133333Y-65188152D02*
X36942857Y-65188152D01*
X36942857Y-65188152D02*
X36847619Y-65235771D01*
X35990476Y-65807200D02*
X36085714Y-65854819D01*
X36085714Y-65854819D02*
X36276190Y-65854819D01*
X36276190Y-65854819D02*
X36371428Y-65807200D01*
X36371428Y-65807200D02*
X36419047Y-65711961D01*
X36419047Y-65711961D02*
X36419047Y-65331009D01*
X36419047Y-65331009D02*
X36371428Y-65235771D01*
X36371428Y-65235771D02*
X36276190Y-65188152D01*
X36276190Y-65188152D02*
X36085714Y-65188152D01*
X36085714Y-65188152D02*
X35990476Y-65235771D01*
X35990476Y-65235771D02*
X35942857Y-65331009D01*
X35942857Y-65331009D02*
X35942857Y-65426247D01*
X35942857Y-65426247D02*
X36419047Y-65521485D01*
X35514285Y-65854819D02*
X35514285Y-65188152D01*
X35514285Y-65378628D02*
X35466666Y-65283390D01*
X35466666Y-65283390D02*
X35419047Y-65235771D01*
X35419047Y-65235771D02*
X35323809Y-65188152D01*
X35323809Y-65188152D02*
X35228571Y-65188152D01*
X34609523Y-64854819D02*
X34609523Y-65569104D01*
X34609523Y-65569104D02*
X34657142Y-65711961D01*
X34657142Y-65711961D02*
X34752380Y-65807200D01*
X34752380Y-65807200D02*
X34895237Y-65854819D01*
X34895237Y-65854819D02*
X34990475Y-65854819D01*
X33704761Y-65188152D02*
X33704761Y-65854819D01*
X34133332Y-65188152D02*
X34133332Y-65711961D01*
X34133332Y-65711961D02*
X34085713Y-65807200D01*
X34085713Y-65807200D02*
X33990475Y-65854819D01*
X33990475Y-65854819D02*
X33847618Y-65854819D01*
X33847618Y-65854819D02*
X33752380Y-65807200D01*
X33752380Y-65807200D02*
X33704761Y-65759580D01*
X33228570Y-65854819D02*
X33228570Y-65188152D01*
X33228570Y-65283390D02*
X33180951Y-65235771D01*
X33180951Y-65235771D02*
X33085713Y-65188152D01*
X33085713Y-65188152D02*
X32942856Y-65188152D01*
X32942856Y-65188152D02*
X32847618Y-65235771D01*
X32847618Y-65235771D02*
X32799999Y-65331009D01*
X32799999Y-65331009D02*
X32799999Y-65854819D01*
X32799999Y-65331009D02*
X32752380Y-65235771D01*
X32752380Y-65235771D02*
X32657142Y-65188152D01*
X32657142Y-65188152D02*
X32514285Y-65188152D01*
X32514285Y-65188152D02*
X32419046Y-65235771D01*
X32419046Y-65235771D02*
X32371427Y-65331009D01*
X32371427Y-65331009D02*
X32371427Y-65854819D01*
X31895237Y-65188152D02*
X31895237Y-66188152D01*
X31895237Y-65235771D02*
X31799999Y-65188152D01*
X31799999Y-65188152D02*
X31609523Y-65188152D01*
X31609523Y-65188152D02*
X31514285Y-65235771D01*
X31514285Y-65235771D02*
X31466666Y-65283390D01*
X31466666Y-65283390D02*
X31419047Y-65378628D01*
X31419047Y-65378628D02*
X31419047Y-65664342D01*
X31419047Y-65664342D02*
X31466666Y-65759580D01*
X31466666Y-65759580D02*
X31514285Y-65807200D01*
X31514285Y-65807200D02*
X31609523Y-65854819D01*
X31609523Y-65854819D02*
X31799999Y-65854819D01*
X31799999Y-65854819D02*
X31895237Y-65807200D01*
X30609523Y-65807200D02*
X30704761Y-65854819D01*
X30704761Y-65854819D02*
X30895237Y-65854819D01*
X30895237Y-65854819D02*
X30990475Y-65807200D01*
X30990475Y-65807200D02*
X31038094Y-65711961D01*
X31038094Y-65711961D02*
X31038094Y-65331009D01*
X31038094Y-65331009D02*
X30990475Y-65235771D01*
X30990475Y-65235771D02*
X30895237Y-65188152D01*
X30895237Y-65188152D02*
X30704761Y-65188152D01*
X30704761Y-65188152D02*
X30609523Y-65235771D01*
X30609523Y-65235771D02*
X30561904Y-65331009D01*
X30561904Y-65331009D02*
X30561904Y-65426247D01*
X30561904Y-65426247D02*
X31038094Y-65521485D01*
X30133332Y-65854819D02*
X30133332Y-65188152D01*
X30133332Y-65378628D02*
X30085713Y-65283390D01*
X30085713Y-65283390D02*
X30038094Y-65235771D01*
X30038094Y-65235771D02*
X29942856Y-65188152D01*
X29942856Y-65188152D02*
X29847618Y-65188152D01*
X29752380Y-65950057D02*
X28990475Y-65950057D01*
X28847617Y-64854819D02*
X28228570Y-64854819D01*
X28228570Y-64854819D02*
X28561903Y-65235771D01*
X28561903Y-65235771D02*
X28419046Y-65235771D01*
X28419046Y-65235771D02*
X28323808Y-65283390D01*
X28323808Y-65283390D02*
X28276189Y-65331009D01*
X28276189Y-65331009D02*
X28228570Y-65426247D01*
X28228570Y-65426247D02*
X28228570Y-65664342D01*
X28228570Y-65664342D02*
X28276189Y-65759580D01*
X28276189Y-65759580D02*
X28323808Y-65807200D01*
X28323808Y-65807200D02*
X28419046Y-65854819D01*
X28419046Y-65854819D02*
X28704760Y-65854819D01*
X28704760Y-65854819D02*
X28799998Y-65807200D01*
X28799998Y-65807200D02*
X28847617Y-65759580D01*
X28038094Y-65950057D02*
X27276189Y-65950057D01*
X26704760Y-65331009D02*
X26561903Y-65378628D01*
X26561903Y-65378628D02*
X26514284Y-65426247D01*
X26514284Y-65426247D02*
X26466665Y-65521485D01*
X26466665Y-65521485D02*
X26466665Y-65664342D01*
X26466665Y-65664342D02*
X26514284Y-65759580D01*
X26514284Y-65759580D02*
X26561903Y-65807200D01*
X26561903Y-65807200D02*
X26657141Y-65854819D01*
X26657141Y-65854819D02*
X27038093Y-65854819D01*
X27038093Y-65854819D02*
X27038093Y-64854819D01*
X27038093Y-64854819D02*
X26704760Y-64854819D01*
X26704760Y-64854819D02*
X26609522Y-64902438D01*
X26609522Y-64902438D02*
X26561903Y-64950057D01*
X26561903Y-64950057D02*
X26514284Y-65045295D01*
X26514284Y-65045295D02*
X26514284Y-65140533D01*
X26514284Y-65140533D02*
X26561903Y-65235771D01*
X26561903Y-65235771D02*
X26609522Y-65283390D01*
X26609522Y-65283390D02*
X26704760Y-65331009D01*
X26704760Y-65331009D02*
X27038093Y-65331009D01*
X26038093Y-65854819D02*
X26038093Y-65188152D01*
X26038093Y-65378628D02*
X25990474Y-65283390D01*
X25990474Y-65283390D02*
X25942855Y-65235771D01*
X25942855Y-65235771D02*
X25847617Y-65188152D01*
X25847617Y-65188152D02*
X25752379Y-65188152D01*
X25419045Y-65854819D02*
X25419045Y-65188152D01*
X25419045Y-64854819D02*
X25466664Y-64902438D01*
X25466664Y-64902438D02*
X25419045Y-64950057D01*
X25419045Y-64950057D02*
X25371426Y-64902438D01*
X25371426Y-64902438D02*
X25419045Y-64854819D01*
X25419045Y-64854819D02*
X25419045Y-64950057D01*
X24514284Y-65854819D02*
X24514284Y-64854819D01*
X24514284Y-65807200D02*
X24609522Y-65854819D01*
X24609522Y-65854819D02*
X24799998Y-65854819D01*
X24799998Y-65854819D02*
X24895236Y-65807200D01*
X24895236Y-65807200D02*
X24942855Y-65759580D01*
X24942855Y-65759580D02*
X24990474Y-65664342D01*
X24990474Y-65664342D02*
X24990474Y-65378628D01*
X24990474Y-65378628D02*
X24942855Y-65283390D01*
X24942855Y-65283390D02*
X24895236Y-65235771D01*
X24895236Y-65235771D02*
X24799998Y-65188152D01*
X24799998Y-65188152D02*
X24609522Y-65188152D01*
X24609522Y-65188152D02*
X24514284Y-65235771D01*
X23609522Y-65188152D02*
X23609522Y-65997676D01*
X23609522Y-65997676D02*
X23657141Y-66092914D01*
X23657141Y-66092914D02*
X23704760Y-66140533D01*
X23704760Y-66140533D02*
X23799998Y-66188152D01*
X23799998Y-66188152D02*
X23942855Y-66188152D01*
X23942855Y-66188152D02*
X24038093Y-66140533D01*
X23609522Y-65807200D02*
X23704760Y-65854819D01*
X23704760Y-65854819D02*
X23895236Y-65854819D01*
X23895236Y-65854819D02*
X23990474Y-65807200D01*
X23990474Y-65807200D02*
X24038093Y-65759580D01*
X24038093Y-65759580D02*
X24085712Y-65664342D01*
X24085712Y-65664342D02*
X24085712Y-65378628D01*
X24085712Y-65378628D02*
X24038093Y-65283390D01*
X24038093Y-65283390D02*
X23990474Y-65235771D01*
X23990474Y-65235771D02*
X23895236Y-65188152D01*
X23895236Y-65188152D02*
X23704760Y-65188152D01*
X23704760Y-65188152D02*
X23609522Y-65235771D01*
X22752379Y-65807200D02*
X22847617Y-65854819D01*
X22847617Y-65854819D02*
X23038093Y-65854819D01*
X23038093Y-65854819D02*
X23133331Y-65807200D01*
X23133331Y-65807200D02*
X23180950Y-65711961D01*
X23180950Y-65711961D02*
X23180950Y-65331009D01*
X23180950Y-65331009D02*
X23133331Y-65235771D01*
X23133331Y-65235771D02*
X23038093Y-65188152D01*
X23038093Y-65188152D02*
X22847617Y-65188152D01*
X22847617Y-65188152D02*
X22752379Y-65235771D01*
X22752379Y-65235771D02*
X22704760Y-65331009D01*
X22704760Y-65331009D02*
X22704760Y-65426247D01*
X22704760Y-65426247D02*
X23180950Y-65521485D01*
X21847617Y-65854819D02*
X21847617Y-64854819D01*
X21847617Y-65807200D02*
X21942855Y-65854819D01*
X21942855Y-65854819D02*
X22133331Y-65854819D01*
X22133331Y-65854819D02*
X22228569Y-65807200D01*
X22228569Y-65807200D02*
X22276188Y-65759580D01*
X22276188Y-65759580D02*
X22323807Y-65664342D01*
X22323807Y-65664342D02*
X22323807Y-65378628D01*
X22323807Y-65378628D02*
X22276188Y-65283390D01*
X22276188Y-65283390D02*
X22228569Y-65235771D01*
X22228569Y-65235771D02*
X22133331Y-65188152D01*
X22133331Y-65188152D02*
X21942855Y-65188152D01*
X21942855Y-65188152D02*
X21847617Y-65235771D01*
X20847617Y-65854819D02*
X21419045Y-65854819D01*
X21133331Y-65854819D02*
X21133331Y-64854819D01*
X21133331Y-64854819D02*
X21228569Y-64997676D01*
X21228569Y-64997676D02*
X21323807Y-65092914D01*
X21323807Y-65092914D02*
X21419045Y-65140533D01*
X20466664Y-64950057D02*
X20419045Y-64902438D01*
X20419045Y-64902438D02*
X20323807Y-64854819D01*
X20323807Y-64854819D02*
X20085712Y-64854819D01*
X20085712Y-64854819D02*
X19990474Y-64902438D01*
X19990474Y-64902438D02*
X19942855Y-64950057D01*
X19942855Y-64950057D02*
X19895236Y-65045295D01*
X19895236Y-65045295D02*
X19895236Y-65140533D01*
X19895236Y-65140533D02*
X19942855Y-65283390D01*
X19942855Y-65283390D02*
X20514283Y-65854819D01*
X20514283Y-65854819D02*
X19895236Y-65854819D01*
X84704762Y-65807200D02*
X84561905Y-65854819D01*
X84561905Y-65854819D02*
X84323810Y-65854819D01*
X84323810Y-65854819D02*
X84228572Y-65807200D01*
X84228572Y-65807200D02*
X84180953Y-65759580D01*
X84180953Y-65759580D02*
X84133334Y-65664342D01*
X84133334Y-65664342D02*
X84133334Y-65569104D01*
X84133334Y-65569104D02*
X84180953Y-65473866D01*
X84180953Y-65473866D02*
X84228572Y-65426247D01*
X84228572Y-65426247D02*
X84323810Y-65378628D01*
X84323810Y-65378628D02*
X84514286Y-65331009D01*
X84514286Y-65331009D02*
X84609524Y-65283390D01*
X84609524Y-65283390D02*
X84657143Y-65235771D01*
X84657143Y-65235771D02*
X84704762Y-65140533D01*
X84704762Y-65140533D02*
X84704762Y-65045295D01*
X84704762Y-65045295D02*
X84657143Y-64950057D01*
X84657143Y-64950057D02*
X84609524Y-64902438D01*
X84609524Y-64902438D02*
X84514286Y-64854819D01*
X84514286Y-64854819D02*
X84276191Y-64854819D01*
X84276191Y-64854819D02*
X84133334Y-64902438D01*
X83561905Y-65854819D02*
X83657143Y-65807200D01*
X83657143Y-65807200D02*
X83704762Y-65759580D01*
X83704762Y-65759580D02*
X83752381Y-65664342D01*
X83752381Y-65664342D02*
X83752381Y-65378628D01*
X83752381Y-65378628D02*
X83704762Y-65283390D01*
X83704762Y-65283390D02*
X83657143Y-65235771D01*
X83657143Y-65235771D02*
X83561905Y-65188152D01*
X83561905Y-65188152D02*
X83419048Y-65188152D01*
X83419048Y-65188152D02*
X83323810Y-65235771D01*
X83323810Y-65235771D02*
X83276191Y-65283390D01*
X83276191Y-65283390D02*
X83228572Y-65378628D01*
X83228572Y-65378628D02*
X83228572Y-65664342D01*
X83228572Y-65664342D02*
X83276191Y-65759580D01*
X83276191Y-65759580D02*
X83323810Y-65807200D01*
X83323810Y-65807200D02*
X83419048Y-65854819D01*
X83419048Y-65854819D02*
X83561905Y-65854819D01*
X82657143Y-65854819D02*
X82752381Y-65807200D01*
X82752381Y-65807200D02*
X82800000Y-65711961D01*
X82800000Y-65711961D02*
X82800000Y-64854819D01*
X81847619Y-65854819D02*
X81847619Y-64854819D01*
X81847619Y-65807200D02*
X81942857Y-65854819D01*
X81942857Y-65854819D02*
X82133333Y-65854819D01*
X82133333Y-65854819D02*
X82228571Y-65807200D01*
X82228571Y-65807200D02*
X82276190Y-65759580D01*
X82276190Y-65759580D02*
X82323809Y-65664342D01*
X82323809Y-65664342D02*
X82323809Y-65378628D01*
X82323809Y-65378628D02*
X82276190Y-65283390D01*
X82276190Y-65283390D02*
X82228571Y-65235771D01*
X82228571Y-65235771D02*
X82133333Y-65188152D01*
X82133333Y-65188152D02*
X81942857Y-65188152D01*
X81942857Y-65188152D02*
X81847619Y-65235771D01*
X80990476Y-65807200D02*
X81085714Y-65854819D01*
X81085714Y-65854819D02*
X81276190Y-65854819D01*
X81276190Y-65854819D02*
X81371428Y-65807200D01*
X81371428Y-65807200D02*
X81419047Y-65711961D01*
X81419047Y-65711961D02*
X81419047Y-65331009D01*
X81419047Y-65331009D02*
X81371428Y-65235771D01*
X81371428Y-65235771D02*
X81276190Y-65188152D01*
X81276190Y-65188152D02*
X81085714Y-65188152D01*
X81085714Y-65188152D02*
X80990476Y-65235771D01*
X80990476Y-65235771D02*
X80942857Y-65331009D01*
X80942857Y-65331009D02*
X80942857Y-65426247D01*
X80942857Y-65426247D02*
X81419047Y-65521485D01*
X80514285Y-65854819D02*
X80514285Y-65188152D01*
X80514285Y-65378628D02*
X80466666Y-65283390D01*
X80466666Y-65283390D02*
X80419047Y-65235771D01*
X80419047Y-65235771D02*
X80323809Y-65188152D01*
X80323809Y-65188152D02*
X80228571Y-65188152D01*
X79609523Y-64854819D02*
X79609523Y-65569104D01*
X79609523Y-65569104D02*
X79657142Y-65711961D01*
X79657142Y-65711961D02*
X79752380Y-65807200D01*
X79752380Y-65807200D02*
X79895237Y-65854819D01*
X79895237Y-65854819D02*
X79990475Y-65854819D01*
X78704761Y-65188152D02*
X78704761Y-65854819D01*
X79133332Y-65188152D02*
X79133332Y-65711961D01*
X79133332Y-65711961D02*
X79085713Y-65807200D01*
X79085713Y-65807200D02*
X78990475Y-65854819D01*
X78990475Y-65854819D02*
X78847618Y-65854819D01*
X78847618Y-65854819D02*
X78752380Y-65807200D01*
X78752380Y-65807200D02*
X78704761Y-65759580D01*
X78228570Y-65854819D02*
X78228570Y-65188152D01*
X78228570Y-65283390D02*
X78180951Y-65235771D01*
X78180951Y-65235771D02*
X78085713Y-65188152D01*
X78085713Y-65188152D02*
X77942856Y-65188152D01*
X77942856Y-65188152D02*
X77847618Y-65235771D01*
X77847618Y-65235771D02*
X77799999Y-65331009D01*
X77799999Y-65331009D02*
X77799999Y-65854819D01*
X77799999Y-65331009D02*
X77752380Y-65235771D01*
X77752380Y-65235771D02*
X77657142Y-65188152D01*
X77657142Y-65188152D02*
X77514285Y-65188152D01*
X77514285Y-65188152D02*
X77419046Y-65235771D01*
X77419046Y-65235771D02*
X77371427Y-65331009D01*
X77371427Y-65331009D02*
X77371427Y-65854819D01*
X76895237Y-65188152D02*
X76895237Y-66188152D01*
X76895237Y-65235771D02*
X76799999Y-65188152D01*
X76799999Y-65188152D02*
X76609523Y-65188152D01*
X76609523Y-65188152D02*
X76514285Y-65235771D01*
X76514285Y-65235771D02*
X76466666Y-65283390D01*
X76466666Y-65283390D02*
X76419047Y-65378628D01*
X76419047Y-65378628D02*
X76419047Y-65664342D01*
X76419047Y-65664342D02*
X76466666Y-65759580D01*
X76466666Y-65759580D02*
X76514285Y-65807200D01*
X76514285Y-65807200D02*
X76609523Y-65854819D01*
X76609523Y-65854819D02*
X76799999Y-65854819D01*
X76799999Y-65854819D02*
X76895237Y-65807200D01*
X75609523Y-65807200D02*
X75704761Y-65854819D01*
X75704761Y-65854819D02*
X75895237Y-65854819D01*
X75895237Y-65854819D02*
X75990475Y-65807200D01*
X75990475Y-65807200D02*
X76038094Y-65711961D01*
X76038094Y-65711961D02*
X76038094Y-65331009D01*
X76038094Y-65331009D02*
X75990475Y-65235771D01*
X75990475Y-65235771D02*
X75895237Y-65188152D01*
X75895237Y-65188152D02*
X75704761Y-65188152D01*
X75704761Y-65188152D02*
X75609523Y-65235771D01*
X75609523Y-65235771D02*
X75561904Y-65331009D01*
X75561904Y-65331009D02*
X75561904Y-65426247D01*
X75561904Y-65426247D02*
X76038094Y-65521485D01*
X75133332Y-65854819D02*
X75133332Y-65188152D01*
X75133332Y-65378628D02*
X75085713Y-65283390D01*
X75085713Y-65283390D02*
X75038094Y-65235771D01*
X75038094Y-65235771D02*
X74942856Y-65188152D01*
X74942856Y-65188152D02*
X74847618Y-65188152D01*
X74752380Y-65950057D02*
X73990475Y-65950057D01*
X73847617Y-64854819D02*
X73228570Y-64854819D01*
X73228570Y-64854819D02*
X73561903Y-65235771D01*
X73561903Y-65235771D02*
X73419046Y-65235771D01*
X73419046Y-65235771D02*
X73323808Y-65283390D01*
X73323808Y-65283390D02*
X73276189Y-65331009D01*
X73276189Y-65331009D02*
X73228570Y-65426247D01*
X73228570Y-65426247D02*
X73228570Y-65664342D01*
X73228570Y-65664342D02*
X73276189Y-65759580D01*
X73276189Y-65759580D02*
X73323808Y-65807200D01*
X73323808Y-65807200D02*
X73419046Y-65854819D01*
X73419046Y-65854819D02*
X73704760Y-65854819D01*
X73704760Y-65854819D02*
X73799998Y-65807200D01*
X73799998Y-65807200D02*
X73847617Y-65759580D01*
X73038094Y-65950057D02*
X72276189Y-65950057D01*
X71704760Y-65331009D02*
X71561903Y-65378628D01*
X71561903Y-65378628D02*
X71514284Y-65426247D01*
X71514284Y-65426247D02*
X71466665Y-65521485D01*
X71466665Y-65521485D02*
X71466665Y-65664342D01*
X71466665Y-65664342D02*
X71514284Y-65759580D01*
X71514284Y-65759580D02*
X71561903Y-65807200D01*
X71561903Y-65807200D02*
X71657141Y-65854819D01*
X71657141Y-65854819D02*
X72038093Y-65854819D01*
X72038093Y-65854819D02*
X72038093Y-64854819D01*
X72038093Y-64854819D02*
X71704760Y-64854819D01*
X71704760Y-64854819D02*
X71609522Y-64902438D01*
X71609522Y-64902438D02*
X71561903Y-64950057D01*
X71561903Y-64950057D02*
X71514284Y-65045295D01*
X71514284Y-65045295D02*
X71514284Y-65140533D01*
X71514284Y-65140533D02*
X71561903Y-65235771D01*
X71561903Y-65235771D02*
X71609522Y-65283390D01*
X71609522Y-65283390D02*
X71704760Y-65331009D01*
X71704760Y-65331009D02*
X72038093Y-65331009D01*
X71038093Y-65854819D02*
X71038093Y-65188152D01*
X71038093Y-65378628D02*
X70990474Y-65283390D01*
X70990474Y-65283390D02*
X70942855Y-65235771D01*
X70942855Y-65235771D02*
X70847617Y-65188152D01*
X70847617Y-65188152D02*
X70752379Y-65188152D01*
X70419045Y-65854819D02*
X70419045Y-65188152D01*
X70419045Y-64854819D02*
X70466664Y-64902438D01*
X70466664Y-64902438D02*
X70419045Y-64950057D01*
X70419045Y-64950057D02*
X70371426Y-64902438D01*
X70371426Y-64902438D02*
X70419045Y-64854819D01*
X70419045Y-64854819D02*
X70419045Y-64950057D01*
X69514284Y-65854819D02*
X69514284Y-64854819D01*
X69514284Y-65807200D02*
X69609522Y-65854819D01*
X69609522Y-65854819D02*
X69799998Y-65854819D01*
X69799998Y-65854819D02*
X69895236Y-65807200D01*
X69895236Y-65807200D02*
X69942855Y-65759580D01*
X69942855Y-65759580D02*
X69990474Y-65664342D01*
X69990474Y-65664342D02*
X69990474Y-65378628D01*
X69990474Y-65378628D02*
X69942855Y-65283390D01*
X69942855Y-65283390D02*
X69895236Y-65235771D01*
X69895236Y-65235771D02*
X69799998Y-65188152D01*
X69799998Y-65188152D02*
X69609522Y-65188152D01*
X69609522Y-65188152D02*
X69514284Y-65235771D01*
X68609522Y-65188152D02*
X68609522Y-65997676D01*
X68609522Y-65997676D02*
X68657141Y-66092914D01*
X68657141Y-66092914D02*
X68704760Y-66140533D01*
X68704760Y-66140533D02*
X68799998Y-66188152D01*
X68799998Y-66188152D02*
X68942855Y-66188152D01*
X68942855Y-66188152D02*
X69038093Y-66140533D01*
X68609522Y-65807200D02*
X68704760Y-65854819D01*
X68704760Y-65854819D02*
X68895236Y-65854819D01*
X68895236Y-65854819D02*
X68990474Y-65807200D01*
X68990474Y-65807200D02*
X69038093Y-65759580D01*
X69038093Y-65759580D02*
X69085712Y-65664342D01*
X69085712Y-65664342D02*
X69085712Y-65378628D01*
X69085712Y-65378628D02*
X69038093Y-65283390D01*
X69038093Y-65283390D02*
X68990474Y-65235771D01*
X68990474Y-65235771D02*
X68895236Y-65188152D01*
X68895236Y-65188152D02*
X68704760Y-65188152D01*
X68704760Y-65188152D02*
X68609522Y-65235771D01*
X67752379Y-65807200D02*
X67847617Y-65854819D01*
X67847617Y-65854819D02*
X68038093Y-65854819D01*
X68038093Y-65854819D02*
X68133331Y-65807200D01*
X68133331Y-65807200D02*
X68180950Y-65711961D01*
X68180950Y-65711961D02*
X68180950Y-65331009D01*
X68180950Y-65331009D02*
X68133331Y-65235771D01*
X68133331Y-65235771D02*
X68038093Y-65188152D01*
X68038093Y-65188152D02*
X67847617Y-65188152D01*
X67847617Y-65188152D02*
X67752379Y-65235771D01*
X67752379Y-65235771D02*
X67704760Y-65331009D01*
X67704760Y-65331009D02*
X67704760Y-65426247D01*
X67704760Y-65426247D02*
X68180950Y-65521485D01*
X66847617Y-65854819D02*
X66847617Y-64854819D01*
X66847617Y-65807200D02*
X66942855Y-65854819D01*
X66942855Y-65854819D02*
X67133331Y-65854819D01*
X67133331Y-65854819D02*
X67228569Y-65807200D01*
X67228569Y-65807200D02*
X67276188Y-65759580D01*
X67276188Y-65759580D02*
X67323807Y-65664342D01*
X67323807Y-65664342D02*
X67323807Y-65378628D01*
X67323807Y-65378628D02*
X67276188Y-65283390D01*
X67276188Y-65283390D02*
X67228569Y-65235771D01*
X67228569Y-65235771D02*
X67133331Y-65188152D01*
X67133331Y-65188152D02*
X66942855Y-65188152D01*
X66942855Y-65188152D02*
X66847617Y-65235771D01*
X65847617Y-65854819D02*
X66419045Y-65854819D01*
X66133331Y-65854819D02*
X66133331Y-64854819D01*
X66133331Y-64854819D02*
X66228569Y-64997676D01*
X66228569Y-64997676D02*
X66323807Y-65092914D01*
X66323807Y-65092914D02*
X66419045Y-65140533D01*
X65466664Y-64950057D02*
X65419045Y-64902438D01*
X65419045Y-64902438D02*
X65323807Y-64854819D01*
X65323807Y-64854819D02*
X65085712Y-64854819D01*
X65085712Y-64854819D02*
X64990474Y-64902438D01*
X64990474Y-64902438D02*
X64942855Y-64950057D01*
X64942855Y-64950057D02*
X64895236Y-65045295D01*
X64895236Y-65045295D02*
X64895236Y-65140533D01*
X64895236Y-65140533D02*
X64942855Y-65283390D01*
X64942855Y-65283390D02*
X65514283Y-65854819D01*
X65514283Y-65854819D02*
X64895236Y-65854819D01*
M02*
