%TF.GenerationSoftware,KiCad,Pcbnew,8.99.0-2433-g53022ab347*%
%TF.CreationDate,2024-09-29T16:39:52+02:00*%
%TF.ProjectId,BlinkyLoopSAO_2x2_panel,426c696e-6b79-44c6-9f6f-7053414f5f32,1.0*%
%TF.SameCoordinates,PX2faf080PY2faf080*%
%TF.FileFunction,Paste,Top*%
%TF.FilePolarity,Positive*%
%FSLAX46Y46*%
G04 Gerber Fmt 4.6, Leading zero omitted, Abs format (unit mm)*
G04 Created by KiCad (PCBNEW 8.99.0-2433-g53022ab347) date 2024-09-29 16:39:52*
%MOMM*%
%LPD*%
G01*
G04 APERTURE LIST*
G04 Aperture macros list*
%AMRoundRect*
0 Rectangle with rounded corners*
0 $1 Rounding radius*
0 $2 $3 $4 $5 $6 $7 $8 $9 X,Y pos of 4 corners*
0 Add a 4 corners polygon primitive as box body*
4,1,4,$2,$3,$4,$5,$6,$7,$8,$9,$2,$3,0*
0 Add four circle primitives for the rounded corners*
1,1,$1+$1,$2,$3*
1,1,$1+$1,$4,$5*
1,1,$1+$1,$6,$7*
1,1,$1+$1,$8,$9*
0 Add four rect primitives between the rounded corners*
20,1,$1+$1,$2,$3,$4,$5,0*
20,1,$1+$1,$4,$5,$6,$7,0*
20,1,$1+$1,$6,$7,$8,$9,0*
20,1,$1+$1,$8,$9,$2,$3,0*%
%AMRotRect*
0 Rectangle, with rotation*
0 The origin of the aperture is its center*
0 $1 length*
0 $2 width*
0 $3 Rotation angle, in degrees counterclockwise*
0 Add horizontal line*
21,1,$1,$2,0,0,$3*%
G04 Aperture macros list end*
%ADD10RotRect,0.700000X0.700000X240.000000*%
%ADD11R,0.700000X0.700000*%
%ADD12RoundRect,0.225000X0.225000X0.250000X-0.225000X0.250000X-0.225000X-0.250000X0.225000X-0.250000X0*%
%ADD13RoundRect,0.225000X-0.225000X-0.250000X0.225000X-0.250000X0.225000X0.250000X-0.225000X0.250000X0*%
%ADD14RotRect,0.700000X0.700000X60.000000*%
%ADD15RotRect,0.700000X0.700000X120.000000*%
%ADD16RotRect,0.700000X0.700000X30.000000*%
%ADD17RotRect,0.700000X0.700000X300.000000*%
%ADD18RotRect,0.700000X0.700000X330.000000*%
%ADD19RoundRect,0.225000X0.250000X-0.225000X0.250000X0.225000X-0.250000X0.225000X-0.250000X-0.225000X0*%
%ADD20RotRect,0.700000X0.700000X150.000000*%
%ADD21R,0.350000X0.375000*%
%ADD22R,0.375000X0.350000*%
%ADD23RotRect,0.700000X0.700000X210.000000*%
G04 APERTURE END LIST*
D10*
%TO.C,D10*%
X12943813Y-16982587D03*
X11991186Y-16432585D03*
X11076187Y-18017413D03*
X12028814Y-18567415D03*
%TD*%
D11*
%TO.C,D12*%
X25915000Y-10550000D03*
X25915000Y-9450000D03*
X24085000Y-9450000D03*
X24085000Y-10550000D03*
%TD*%
D12*
%TO.C,C1*%
X25775001Y-15000000D03*
X24224999Y-15000000D03*
%TD*%
D13*
%TO.C,C5*%
X15225000Y-25000000D03*
X16775000Y-25000000D03*
%TD*%
D12*
%TO.C,C2*%
X25775001Y-17000000D03*
X24224999Y-17000000D03*
%TD*%
D11*
%TO.C,D6*%
X24085000Y-39450000D03*
X24085000Y-40550000D03*
X25915000Y-40550000D03*
X25915000Y-39450000D03*
%TD*%
D14*
%TO.C,D4*%
X37056185Y-33017413D03*
X38008814Y-33567413D03*
X38923815Y-31982587D03*
X37971186Y-31432587D03*
%TD*%
D15*
%TO.C,D2*%
X37971186Y-18567415D03*
X38923813Y-18017413D03*
X38008814Y-16432585D03*
X37056187Y-16982587D03*
%TD*%
D11*
%TO.C,D3*%
X39450000Y-25915000D03*
X40550000Y-25915000D03*
X40550000Y-24085000D03*
X39450000Y-24085000D03*
%TD*%
D16*
%TO.C,D5*%
X31432586Y-37971187D03*
X31982587Y-38923814D03*
X33567414Y-38008813D03*
X33017413Y-37056186D03*
%TD*%
D12*
%TO.C,C3*%
X34775001Y-25000000D03*
X33224999Y-25000000D03*
%TD*%
D17*
%TO.C,D8*%
X12028814Y-31432587D03*
X11076186Y-31982588D03*
X11991186Y-33567413D03*
X12943814Y-33017412D03*
%TD*%
D18*
%TO.C,D7*%
X16982587Y-37056186D03*
X16432586Y-38008813D03*
X18017413Y-38923814D03*
X18567414Y-37971187D03*
%TD*%
D19*
%TO.C,C4*%
X25000000Y-34775001D03*
X25000000Y-33224999D03*
%TD*%
D20*
%TO.C,D1*%
X33017414Y-12943815D03*
X33567411Y-11991186D03*
X31982586Y-11076185D03*
X31432589Y-12028814D03*
%TD*%
D21*
%TO.C,U1*%
X24249999Y-20762501D03*
X24750001Y-20762498D03*
X25249999Y-20762500D03*
X25750001Y-20762499D03*
D22*
X25762498Y-20249999D03*
X25762500Y-19750001D03*
D21*
X25750001Y-19237499D03*
X25249999Y-19237502D03*
X24750001Y-19237500D03*
X24249999Y-19237501D03*
D22*
X24237502Y-19750001D03*
X24237500Y-20249999D03*
%TD*%
D11*
%TO.C,D9*%
X10550000Y-24085000D03*
X9450000Y-24085000D03*
X9450000Y-25915000D03*
X10550000Y-25915000D03*
%TD*%
D23*
%TO.C,D11*%
X18567412Y-12028814D03*
X18017411Y-11076186D03*
X16432588Y-11991186D03*
X16982589Y-12943814D03*
%TD*%
D10*
%TO.C,D10*%
X57943813Y-16982587D03*
X56991186Y-16432585D03*
X56076187Y-18017413D03*
X57028814Y-18567415D03*
%TD*%
D11*
%TO.C,D12*%
X70915000Y-10550000D03*
X70915000Y-9450000D03*
X69085000Y-9450000D03*
X69085000Y-10550000D03*
%TD*%
D12*
%TO.C,C1*%
X70775001Y-15000000D03*
X69224999Y-15000000D03*
%TD*%
D13*
%TO.C,C5*%
X60225000Y-25000000D03*
X61775000Y-25000000D03*
%TD*%
D12*
%TO.C,C2*%
X70775001Y-17000000D03*
X69224999Y-17000000D03*
%TD*%
D11*
%TO.C,D6*%
X69085000Y-39450000D03*
X69085000Y-40550000D03*
X70915000Y-40550000D03*
X70915000Y-39450000D03*
%TD*%
D14*
%TO.C,D4*%
X82056185Y-33017413D03*
X83008814Y-33567413D03*
X83923815Y-31982587D03*
X82971186Y-31432587D03*
%TD*%
D15*
%TO.C,D2*%
X82971186Y-18567415D03*
X83923813Y-18017413D03*
X83008814Y-16432585D03*
X82056187Y-16982587D03*
%TD*%
D11*
%TO.C,D3*%
X84450000Y-25915000D03*
X85550000Y-25915000D03*
X85550000Y-24085000D03*
X84450000Y-24085000D03*
%TD*%
D16*
%TO.C,D5*%
X76432586Y-37971187D03*
X76982587Y-38923814D03*
X78567414Y-38008813D03*
X78017413Y-37056186D03*
%TD*%
D12*
%TO.C,C3*%
X79775001Y-25000000D03*
X78224999Y-25000000D03*
%TD*%
D17*
%TO.C,D8*%
X57028814Y-31432587D03*
X56076186Y-31982588D03*
X56991186Y-33567413D03*
X57943814Y-33017412D03*
%TD*%
D18*
%TO.C,D7*%
X61982587Y-37056186D03*
X61432586Y-38008813D03*
X63017413Y-38923814D03*
X63567414Y-37971187D03*
%TD*%
D19*
%TO.C,C4*%
X70000000Y-34775001D03*
X70000000Y-33224999D03*
%TD*%
D20*
%TO.C,D1*%
X78017414Y-12943815D03*
X78567411Y-11991186D03*
X76982586Y-11076185D03*
X76432589Y-12028814D03*
%TD*%
D21*
%TO.C,U1*%
X69249999Y-20762501D03*
X69750001Y-20762498D03*
X70249999Y-20762500D03*
X70750001Y-20762499D03*
D22*
X70762498Y-20249999D03*
X70762500Y-19750001D03*
D21*
X70750001Y-19237499D03*
X70249999Y-19237502D03*
X69750001Y-19237500D03*
X69249999Y-19237501D03*
D22*
X69237502Y-19750001D03*
X69237500Y-20249999D03*
%TD*%
D11*
%TO.C,D9*%
X55550000Y-24085000D03*
X54450000Y-24085000D03*
X54450000Y-25915000D03*
X55550000Y-25915000D03*
%TD*%
D23*
%TO.C,D11*%
X63567412Y-12028814D03*
X63017411Y-11076186D03*
X61432588Y-11991186D03*
X61982589Y-12943814D03*
%TD*%
D10*
%TO.C,D10*%
X12943813Y-61982587D03*
X11991186Y-61432585D03*
X11076187Y-63017413D03*
X12028814Y-63567415D03*
%TD*%
D11*
%TO.C,D12*%
X25915000Y-55550000D03*
X25915000Y-54450000D03*
X24085000Y-54450000D03*
X24085000Y-55550000D03*
%TD*%
D12*
%TO.C,C1*%
X25775001Y-60000000D03*
X24224999Y-60000000D03*
%TD*%
D13*
%TO.C,C5*%
X15225000Y-70000000D03*
X16775000Y-70000000D03*
%TD*%
D12*
%TO.C,C2*%
X25775001Y-62000000D03*
X24224999Y-62000000D03*
%TD*%
D11*
%TO.C,D6*%
X24085000Y-84450000D03*
X24085000Y-85550000D03*
X25915000Y-85550000D03*
X25915000Y-84450000D03*
%TD*%
D14*
%TO.C,D4*%
X37056185Y-78017413D03*
X38008814Y-78567413D03*
X38923815Y-76982587D03*
X37971186Y-76432587D03*
%TD*%
D15*
%TO.C,D2*%
X37971186Y-63567415D03*
X38923813Y-63017413D03*
X38008814Y-61432585D03*
X37056187Y-61982587D03*
%TD*%
D11*
%TO.C,D3*%
X39450000Y-70915000D03*
X40550000Y-70915000D03*
X40550000Y-69085000D03*
X39450000Y-69085000D03*
%TD*%
D16*
%TO.C,D5*%
X31432586Y-82971187D03*
X31982587Y-83923814D03*
X33567414Y-83008813D03*
X33017413Y-82056186D03*
%TD*%
D12*
%TO.C,C3*%
X34775001Y-70000000D03*
X33224999Y-70000000D03*
%TD*%
D17*
%TO.C,D8*%
X12028814Y-76432587D03*
X11076186Y-76982588D03*
X11991186Y-78567413D03*
X12943814Y-78017412D03*
%TD*%
D18*
%TO.C,D7*%
X16982587Y-82056186D03*
X16432586Y-83008813D03*
X18017413Y-83923814D03*
X18567414Y-82971187D03*
%TD*%
D19*
%TO.C,C4*%
X25000000Y-79775001D03*
X25000000Y-78224999D03*
%TD*%
D20*
%TO.C,D1*%
X33017414Y-57943815D03*
X33567411Y-56991186D03*
X31982586Y-56076185D03*
X31432589Y-57028814D03*
%TD*%
D21*
%TO.C,U1*%
X24249999Y-65762501D03*
X24750001Y-65762498D03*
X25249999Y-65762500D03*
X25750001Y-65762499D03*
D22*
X25762498Y-65249999D03*
X25762500Y-64750001D03*
D21*
X25750001Y-64237499D03*
X25249999Y-64237502D03*
X24750001Y-64237500D03*
X24249999Y-64237501D03*
D22*
X24237502Y-64750001D03*
X24237500Y-65249999D03*
%TD*%
D11*
%TO.C,D9*%
X10550000Y-69085000D03*
X9450000Y-69085000D03*
X9450000Y-70915000D03*
X10550000Y-70915000D03*
%TD*%
D23*
%TO.C,D11*%
X18567412Y-57028814D03*
X18017411Y-56076186D03*
X16432588Y-56991186D03*
X16982589Y-57943814D03*
%TD*%
D10*
%TO.C,D10*%
X57943813Y-61982587D03*
X56991186Y-61432585D03*
X56076187Y-63017413D03*
X57028814Y-63567415D03*
%TD*%
D11*
%TO.C,D12*%
X70915000Y-55550000D03*
X70915000Y-54450000D03*
X69085000Y-54450000D03*
X69085000Y-55550000D03*
%TD*%
D12*
%TO.C,C1*%
X70775001Y-60000000D03*
X69224999Y-60000000D03*
%TD*%
D13*
%TO.C,C5*%
X60225000Y-70000000D03*
X61775000Y-70000000D03*
%TD*%
D12*
%TO.C,C2*%
X70775001Y-62000000D03*
X69224999Y-62000000D03*
%TD*%
D11*
%TO.C,D6*%
X69085000Y-84450000D03*
X69085000Y-85550000D03*
X70915000Y-85550000D03*
X70915000Y-84450000D03*
%TD*%
D14*
%TO.C,D4*%
X82056185Y-78017413D03*
X83008814Y-78567413D03*
X83923815Y-76982587D03*
X82971186Y-76432587D03*
%TD*%
D15*
%TO.C,D2*%
X82971186Y-63567415D03*
X83923813Y-63017413D03*
X83008814Y-61432585D03*
X82056187Y-61982587D03*
%TD*%
D11*
%TO.C,D3*%
X84450000Y-70915000D03*
X85550000Y-70915000D03*
X85550000Y-69085000D03*
X84450000Y-69085000D03*
%TD*%
D16*
%TO.C,D5*%
X76432586Y-82971187D03*
X76982587Y-83923814D03*
X78567414Y-83008813D03*
X78017413Y-82056186D03*
%TD*%
D12*
%TO.C,C3*%
X79775001Y-70000000D03*
X78224999Y-70000000D03*
%TD*%
D17*
%TO.C,D8*%
X57028814Y-76432587D03*
X56076186Y-76982588D03*
X56991186Y-78567413D03*
X57943814Y-78017412D03*
%TD*%
D18*
%TO.C,D7*%
X61982587Y-82056186D03*
X61432586Y-83008813D03*
X63017413Y-83923814D03*
X63567414Y-82971187D03*
%TD*%
D19*
%TO.C,C4*%
X70000000Y-79775001D03*
X70000000Y-78224999D03*
%TD*%
D20*
%TO.C,D1*%
X78017414Y-57943815D03*
X78567411Y-56991186D03*
X76982586Y-56076185D03*
X76432589Y-57028814D03*
%TD*%
D21*
%TO.C,U1*%
X69249999Y-65762501D03*
X69750001Y-65762498D03*
X70249999Y-65762500D03*
X70750001Y-65762499D03*
D22*
X70762498Y-65249999D03*
X70762500Y-64750001D03*
D21*
X70750001Y-64237499D03*
X70249999Y-64237502D03*
X69750001Y-64237500D03*
X69249999Y-64237501D03*
D22*
X69237502Y-64750001D03*
X69237500Y-65249999D03*
%TD*%
D11*
%TO.C,D9*%
X55550000Y-69085000D03*
X54450000Y-69085000D03*
X54450000Y-70915000D03*
X55550000Y-70915000D03*
%TD*%
D23*
%TO.C,D11*%
X63567412Y-57028814D03*
X63017411Y-56076186D03*
X61432588Y-56991186D03*
X61982589Y-57943814D03*
%TD*%
M02*
