%TF.GenerationSoftware,KiCad,Pcbnew,8.99.0-2433-g53022ab347*%
%TF.CreationDate,2024-09-29T16:39:53+02:00*%
%TF.ProjectId,BlinkyLoopSAO_2x2_panel,426c696e-6b79-44c6-9f6f-7053414f5f32,1.0*%
%TF.SameCoordinates,PX2faf080PY2faf080*%
%TF.FileFunction,Profile,NP*%
%FSLAX46Y46*%
G04 Gerber Fmt 4.6, Leading zero omitted, Abs format (unit mm)*
G04 Created by KiCad (PCBNEW 8.99.0-2433-g53022ab347) date 2024-09-29 16:39:53*
%MOMM*%
%LPD*%
G01*
G04 APERTURE LIST*
%TA.AperFunction,Profile*%
%ADD10C,0.050000*%
%TD*%
G04 APERTURE END LIST*
D10*
X66500000Y-5000000D02*
G75*
G02*
X67500000Y-6000000I0J-1000000D01*
G01*
X6000000Y-67500000D02*
X8163816Y-67483814D01*
X6000000Y-27500000D02*
X8163815Y-27516183D01*
X4999999Y-73499999D02*
G75*
G02*
X6000000Y-72499999I1000001J-1D01*
G01*
X90000000Y-50000000D02*
X89999999Y-66500001D01*
X6000000Y-22500000D02*
G75*
G02*
X5000000Y-21500001I0J1000000D01*
G01*
X27500000Y-53180000D02*
G75*
G02*
X41820000Y-67500000I-2516200J-16836200D01*
G01*
X22500000Y-44000000D02*
G75*
G02*
X21500002Y-45000000I-1000000J0D01*
G01*
X44999999Y-21500001D02*
G75*
G02*
X44000000Y-22499999I-999999J1D01*
G01*
X22483813Y-86836185D02*
G75*
G02*
X8163814Y-72516183I2516187J16836185D01*
G01*
X95000000Y-95000000D02*
X0Y-95000000D01*
X27500000Y-6000000D02*
X27500000Y-8180000D01*
X41820000Y-22500000D02*
X44000000Y-22500000D01*
X6000000Y-22500000D02*
X8163816Y-22483814D01*
X4999999Y-28499999D02*
X5000000Y-45000000D01*
X45000000Y-45000000D02*
X45000001Y-28499999D01*
X86836182Y-72516185D02*
X89000000Y-72500000D01*
X90000000Y-45000000D02*
X90000001Y-28499999D01*
X0Y0D02*
X95000000Y0D01*
X50000000Y-50000000D02*
X50000000Y-65000000D01*
X49999999Y-73499999D02*
X50000000Y-90000000D01*
X72500000Y-6000000D02*
X72500000Y-8180000D01*
X49999999Y-28499999D02*
G75*
G02*
X51000000Y-27499999I1000001J-1D01*
G01*
X73499998Y-90000000D02*
X90000000Y-90000000D01*
X21500000Y-5000000D02*
G75*
G02*
X22500000Y-6000000I0J-1000000D01*
G01*
X86836183Y-72516185D02*
G75*
G02*
X72516183Y-86836183I-16836183J2516185D01*
G01*
X28499998Y-45000000D02*
X45000000Y-45000000D01*
X73499998Y-45000000D02*
G75*
G02*
X72500000Y-44000000I2J1000000D01*
G01*
X41836182Y-27516185D02*
X44000000Y-27500000D01*
X44000000Y-72500000D02*
G75*
G02*
X45000000Y-73499999I0J-1000000D01*
G01*
X27500000Y-51000000D02*
X27500000Y-53180000D01*
X89000000Y-72500000D02*
G75*
G02*
X90000000Y-73499999I0J-1000000D01*
G01*
X95000000Y0D02*
X95000000Y-95000000D01*
X50000000Y-65000000D02*
X50000001Y-66500001D01*
X5000000Y-5000000D02*
X5000000Y-20000000D01*
X90000000Y-5000000D02*
X89999999Y-21500001D01*
X51000000Y-67500000D02*
G75*
G02*
X50000000Y-66500001I0J1000000D01*
G01*
X8163815Y-22483814D02*
G75*
G02*
X22483817Y-8163815I16836185J-2516186D01*
G01*
X5000000Y-50000000D02*
X5000000Y-65000000D01*
X5000000Y-65000000D02*
X5000001Y-66500001D01*
X41836182Y-72516185D02*
X44000000Y-72500000D01*
X89000000Y-27500000D02*
G75*
G02*
X90000000Y-28499999I0J-1000000D01*
G01*
X89999999Y-21500001D02*
G75*
G02*
X89000000Y-22499999I-999999J1D01*
G01*
X45000000Y-5000000D02*
X44999999Y-21500001D01*
X27500000Y-51000000D02*
G75*
G02*
X28500000Y-50000000I1000000J0D01*
G01*
X67500000Y-51000000D02*
X67483817Y-53163814D01*
X0Y-95000000D02*
X0Y0D01*
X67483813Y-41836185D02*
X67500000Y-44000000D01*
X50000000Y-20000000D02*
X50000001Y-21500001D01*
X44000000Y-27500000D02*
G75*
G02*
X45000000Y-28499999I0J-1000000D01*
G01*
X41836183Y-72516185D02*
G75*
G02*
X27516183Y-86836183I-16836183J2516185D01*
G01*
X27500000Y-6000000D02*
G75*
G02*
X28500000Y-5000000I1000000J0D01*
G01*
X5000000Y-20000000D02*
X5000001Y-21500001D01*
X41836183Y-27516185D02*
G75*
G02*
X27516183Y-41836183I-16836183J2516185D01*
G01*
X28499998Y-90000000D02*
X45000000Y-90000000D01*
X72516183Y-41836184D02*
X72500000Y-44000000D01*
X50000000Y-90000000D02*
X66500002Y-89999999D01*
X51000000Y-67500000D02*
X53163816Y-67483814D01*
X4999999Y-28499999D02*
G75*
G02*
X6000000Y-27499999I1000001J-1D01*
G01*
X72516183Y-86836184D02*
X72500000Y-89000000D01*
X53163815Y-67483814D02*
G75*
G02*
X67483817Y-53163815I16836185J-2516186D01*
G01*
X6000000Y-67500000D02*
G75*
G02*
X5000000Y-66500001I0J1000000D01*
G01*
X72500000Y-6000000D02*
G75*
G02*
X73500000Y-5000000I1000000J0D01*
G01*
X72500000Y-8180000D02*
G75*
G02*
X86820000Y-22500000I-2516200J-16836200D01*
G01*
X67483813Y-41836185D02*
G75*
G02*
X53163814Y-27516183I2516187J16836185D01*
G01*
X86836182Y-27516185D02*
X89000000Y-27500000D01*
X89999999Y-66500001D02*
G75*
G02*
X89000000Y-67499999I-999999J1D01*
G01*
X86820000Y-67500000D02*
X89000000Y-67500000D01*
X72500000Y-53180000D02*
G75*
G02*
X86820000Y-67500000I-2516200J-16836200D01*
G01*
X49999999Y-28499999D02*
X50000000Y-45000000D01*
X21500000Y-50000000D02*
X5000000Y-50000000D01*
X21500000Y-5000000D02*
X5000000Y-5000000D01*
X41820000Y-67500000D02*
X44000000Y-67500000D01*
X67500000Y-6000000D02*
X67483817Y-8163814D01*
X66500000Y-50000000D02*
X50000000Y-50000000D01*
X51000000Y-22500000D02*
X53163816Y-22483814D01*
X5000000Y-90000000D02*
X21500002Y-89999999D01*
X67483813Y-86836185D02*
G75*
G02*
X53163814Y-72516183I2516187J16836185D01*
G01*
X67500000Y-44000000D02*
G75*
G02*
X66500002Y-45000000I-1000000J0D01*
G01*
X72500000Y-51000000D02*
X72500000Y-53180000D01*
X49999999Y-73499999D02*
G75*
G02*
X51000000Y-72499999I1000001J-1D01*
G01*
X6000000Y-72500000D02*
X8163815Y-72516183D01*
X21500000Y-50000000D02*
G75*
G02*
X22500000Y-51000000I0J-1000000D01*
G01*
X4999999Y-73499999D02*
X5000000Y-90000000D01*
X66500000Y-50000000D02*
G75*
G02*
X67500000Y-51000000I0J-1000000D01*
G01*
X73499998Y-90000000D02*
G75*
G02*
X72500000Y-89000000I2J1000000D01*
G01*
X53163815Y-22483814D02*
G75*
G02*
X67483817Y-8163815I16836185J-2516186D01*
G01*
X27516183Y-41836184D02*
X27500000Y-44000000D01*
X86820000Y-22500000D02*
X89000000Y-22500000D01*
X5000000Y-45000000D02*
X21500002Y-44999999D01*
X27500000Y-8180000D02*
G75*
G02*
X41820000Y-22500000I-2516200J-16836200D01*
G01*
X90000000Y-90000000D02*
X90000001Y-73499999D01*
X22483813Y-41836185D02*
G75*
G02*
X8163814Y-27516183I2516187J16836185D01*
G01*
X51000000Y-27500000D02*
X53163815Y-27516183D01*
X51000000Y-22500000D02*
G75*
G02*
X50000000Y-21500001I0J1000000D01*
G01*
X22500000Y-89000000D02*
G75*
G02*
X21500002Y-90000000I-1000000J0D01*
G01*
X50000000Y-5000000D02*
X50000000Y-20000000D01*
X28500000Y-5000000D02*
X45000000Y-5000000D01*
X72500000Y-51000000D02*
G75*
G02*
X73500000Y-50000000I1000000J0D01*
G01*
X67483813Y-86836185D02*
X67500000Y-89000000D01*
X45000000Y-90000000D02*
X45000001Y-73499999D01*
X51000000Y-72500000D02*
X53163815Y-72516183D01*
X28499998Y-90000000D02*
G75*
G02*
X27500000Y-89000000I2J1000000D01*
G01*
X67500000Y-89000000D02*
G75*
G02*
X66500002Y-90000000I-1000000J0D01*
G01*
X66500000Y-5000000D02*
X50000000Y-5000000D01*
X27516183Y-86836184D02*
X27500000Y-89000000D01*
X44999999Y-66500001D02*
G75*
G02*
X44000000Y-67499999I-999999J1D01*
G01*
X86836183Y-27516185D02*
G75*
G02*
X72516183Y-41836183I-16836183J2516185D01*
G01*
X45000000Y-50000000D02*
X44999999Y-66500001D01*
X22500000Y-6000000D02*
X22483817Y-8163814D01*
X50000000Y-45000000D02*
X66500002Y-44999999D01*
X73500000Y-5000000D02*
X90000000Y-5000000D01*
X8163815Y-67483814D02*
G75*
G02*
X22483817Y-53163815I16836185J-2516186D01*
G01*
X28499998Y-45000000D02*
G75*
G02*
X27500000Y-44000000I2J1000000D01*
G01*
X22483813Y-41836185D02*
X22500000Y-44000000D01*
X22483813Y-86836185D02*
X22500000Y-89000000D01*
X73500000Y-50000000D02*
X90000000Y-50000000D01*
X73499998Y-45000000D02*
X90000000Y-45000000D01*
X22500000Y-51000000D02*
X22483817Y-53163814D01*
X28500000Y-50000000D02*
X45000000Y-50000000D01*
X19500000Y-18000004D02*
G75*
G02*
X18500000Y-18000000I-500000J4D01*
G01*
X21500000Y-16000002D02*
X21500000Y-18000002D01*
X21500000Y-18000002D02*
G75*
G02*
X20500000Y-17999998I-500000J2D01*
G01*
X20500000Y-15999998D02*
G75*
G02*
X21500000Y-16000002I500000J-2D01*
G01*
X18500000Y-16000000D02*
G75*
G02*
X19500000Y-16000004I500000J0D01*
G01*
X19500000Y-16000004D02*
X19500000Y-18000004D01*
X20500000Y-17999998D02*
X20500000Y-15999998D01*
X18500000Y-18000000D02*
X18500000Y-16000000D01*
X64500000Y-18000004D02*
G75*
G02*
X63500000Y-18000000I-500000J4D01*
G01*
X66500000Y-16000002D02*
X66500000Y-18000002D01*
X66500000Y-18000002D02*
G75*
G02*
X65500000Y-17999998I-500000J2D01*
G01*
X65500000Y-15999998D02*
G75*
G02*
X66500000Y-16000002I500000J-2D01*
G01*
X63500000Y-16000000D02*
G75*
G02*
X64500000Y-16000004I500000J0D01*
G01*
X64500000Y-16000004D02*
X64500000Y-18000004D01*
X65500000Y-17999998D02*
X65500000Y-15999998D01*
X63500000Y-18000000D02*
X63500000Y-16000000D01*
X19500000Y-63000004D02*
G75*
G02*
X18500000Y-63000000I-500000J4D01*
G01*
X21500000Y-61000002D02*
X21500000Y-63000002D01*
X21500000Y-63000002D02*
G75*
G02*
X20500000Y-62999998I-500000J2D01*
G01*
X20500000Y-60999998D02*
G75*
G02*
X21500000Y-61000002I500000J-2D01*
G01*
X18500000Y-61000000D02*
G75*
G02*
X19500000Y-61000004I500000J0D01*
G01*
X19500000Y-61000004D02*
X19500000Y-63000004D01*
X20500000Y-62999998D02*
X20500000Y-60999998D01*
X18500000Y-63000000D02*
X18500000Y-61000000D01*
X64500000Y-63000004D02*
G75*
G02*
X63500000Y-63000000I-500000J4D01*
G01*
X66500000Y-61000002D02*
X66500000Y-63000002D01*
X66500000Y-63000002D02*
G75*
G02*
X65500000Y-62999998I-500000J2D01*
G01*
X65500000Y-60999998D02*
G75*
G02*
X66500000Y-61000002I500000J-2D01*
G01*
X63500000Y-61000000D02*
G75*
G02*
X64500000Y-61000004I500000J0D01*
G01*
X64500000Y-61000004D02*
X64500000Y-63000004D01*
X65500000Y-62999998D02*
X65500000Y-60999998D01*
X63500000Y-63000000D02*
X63500000Y-61000000D01*
M02*
