M48
; DRILL file {KiCad 8.99.0-2433-g53022ab347} date 2024-09-29T16:40:13+0200
; FORMAT={-:-/ absolute / inch / decimal}
; #@! TF.CreationDate,2024-09-29T16:40:13+02:00
; #@! TF.GenerationSoftware,Kicad,Pcbnew,8.99.0-2433-g53022ab347
; #@! TF.FileFunction,NonPlated,1,2,NPTH
FMAT,2
INCH
; #@! TA.AperFunction,NonPlated,NPTH,ComponentDrill
T1C0.0157
; #@! TA.AperFunction,NonPlated,NPTH,ComponentDrill
T2C0.0300
%
G90
G05
T1
X0.0197Y-0.2953
X0.0197Y-1.6732
X0.0197Y-2.0669
X0.0197Y-3.4449
X0.0394Y-0.2953
X0.0394Y-1.6732
X0.0394Y-2.0669
X0.0394Y-3.4449
X0.0591Y-0.2953
X0.0591Y-1.6732
X0.0591Y-2.0669
X0.0591Y-3.4449
X0.0787Y-0.2953
X0.0787Y-1.6732
X0.0787Y-2.0669
X0.0787Y-3.4449
X0.0984Y-0.2953
X0.0984Y-1.6732
X0.0984Y-2.0669
X0.0984Y-3.4449
X0.1181Y-0.2953
X0.1181Y-1.6732
X0.1181Y-2.0669
X0.1181Y-3.4449
X0.1378Y-0.2953
X0.1378Y-1.6732
X0.1378Y-2.0669
X0.1378Y-3.4449
X0.1575Y-0.2953
X0.1575Y-1.6732
X0.1575Y-2.0669
X0.1575Y-3.4449
X0.1772Y-0.2953
X0.1772Y-1.6732
X0.1772Y-2.0669
X0.1772Y-3.4449
X0.2953Y-1.0039
X0.2953Y-2.7756
X0.2953Y-0.9055
X0.2953Y-0.9252
X0.2953Y-0.9449
X0.2953Y-0.9843
X0.2953Y-1.0236
X0.2953Y-1.0433
X0.2953Y-1.063
X0.2953Y-2.6772
X0.2953Y-2.6969
X0.2953Y-2.7165
X0.2953Y-2.7559
X0.2953Y-2.7953
X0.2953Y-2.815
X0.2953Y-2.8346
X0.2953Y-0.9646
X0.2953Y-2.7362
X0.9055Y-0.2953
X0.9055Y-1.6732
X0.9055Y-2.0669
X0.9055Y-3.4449
X0.9252Y-0.2953
X0.9252Y-1.6732
X0.9252Y-2.0669
X0.9252Y-3.4449
X0.9449Y-0.2953
X0.9449Y-1.6732
X0.9449Y-2.0669
X0.9449Y-3.4449
X0.9646Y-0.2953
X0.9646Y-1.6732
X0.9646Y-2.0669
X0.9646Y-3.4449
X0.9843Y-0.2953
X0.9843Y-1.6732
X0.9843Y-2.0669
X0.9843Y-3.4449
X1.0039Y-0.2953
X1.0039Y-1.6732
X1.0039Y-2.0669
X1.0039Y-3.4449
X1.0236Y-0.2953
X1.0236Y-1.6732
X1.0236Y-2.0669
X1.0236Y-3.4449
X1.0433Y-0.2953
X1.0433Y-1.6732
X1.0433Y-2.0669
X1.0433Y-3.4449
X1.063Y-0.2953
X1.063Y-1.6732
X1.063Y-2.0669
X1.063Y-3.4449
X1.6732Y-0.9646
X1.6732Y-2.7362
X1.6732Y-0.9055
X1.6732Y-0.9252
X1.6732Y-0.9449
X1.6732Y-0.9843
X1.6732Y-1.0236
X1.6732Y-1.0433
X1.6732Y-1.063
X1.6732Y-2.6772
X1.6732Y-2.6969
X1.6732Y-2.7165
X1.6732Y-2.7559
X1.6732Y-2.7953
X1.6732Y-2.815
X1.6732Y-2.8346
X1.6732Y-1.0039
X1.6732Y-2.7756
X1.7913Y-0.2953
X1.7913Y-1.6732
X1.7913Y-2.0669
X1.7913Y-3.4449
X1.811Y-0.2953
X1.811Y-1.6732
X1.811Y-2.0669
X1.811Y-3.4449
X1.8307Y-0.2953
X1.8307Y-1.6732
X1.8307Y-2.0669
X1.8307Y-3.4449
X1.8504Y-0.2953
X1.8504Y-1.6732
X1.8504Y-2.0669
X1.8504Y-3.4449
X1.8701Y-0.2953
X1.8701Y-1.6732
X1.8701Y-2.0669
X1.8701Y-3.4449
X1.8898Y-0.2953
X1.8898Y-1.6732
X1.8898Y-2.0669
X1.8898Y-3.4449
X1.9094Y-0.2953
X1.9094Y-1.6732
X1.9094Y-2.0669
X1.9094Y-3.4449
X1.9291Y-0.2953
X1.9291Y-1.6732
X1.9291Y-2.0669
X1.9291Y-3.4449
X1.9488Y-0.2953
X1.9488Y-1.6732
X1.9488Y-2.0669
X1.9488Y-3.4449
X2.0669Y-1.0039
X2.0669Y-2.7756
X2.0669Y-0.9055
X2.0669Y-0.9252
X2.0669Y-0.9449
X2.0669Y-0.9843
X2.0669Y-1.0236
X2.0669Y-1.0433
X2.0669Y-1.063
X2.0669Y-2.6772
X2.0669Y-2.6969
X2.0669Y-2.7165
X2.0669Y-2.7559
X2.0669Y-2.7953
X2.0669Y-2.815
X2.0669Y-2.8346
X2.0669Y-0.9646
X2.0669Y-2.7362
X2.6772Y-0.2953
X2.6772Y-1.6732
X2.6772Y-2.0669
X2.6772Y-3.4449
X2.6969Y-0.2953
X2.6969Y-1.6732
X2.6969Y-2.0669
X2.6969Y-3.4449
X2.7165Y-0.2953
X2.7165Y-1.6732
X2.7165Y-2.0669
X2.7165Y-3.4449
X2.7362Y-0.2953
X2.7362Y-1.6732
X2.7362Y-2.0669
X2.7362Y-3.4449
X2.7559Y-0.2953
X2.7559Y-1.6732
X2.7559Y-2.0669
X2.7559Y-3.4449
X2.7756Y-0.2953
X2.7756Y-1.6732
X2.7756Y-2.0669
X2.7756Y-3.4449
X2.7953Y-0.2953
X2.7953Y-1.6732
X2.7953Y-2.0669
X2.7953Y-3.4449
X2.815Y-0.2953
X2.815Y-1.6732
X2.815Y-2.0669
X2.815Y-3.4449
X2.8346Y-0.2953
X2.8346Y-1.6732
X2.8346Y-2.0669
X2.8346Y-3.4449
X3.4449Y-0.9646
X3.4449Y-2.7362
X3.4449Y-0.9055
X3.4449Y-0.9252
X3.4449Y-0.9449
X3.4449Y-0.9843
X3.4449Y-1.0236
X3.4449Y-1.0433
X3.4449Y-1.063
X3.4449Y-2.6772
X3.4449Y-2.6969
X3.4449Y-2.7165
X3.4449Y-2.7559
X3.4449Y-2.7953
X3.4449Y-2.815
X3.4449Y-2.8346
X3.4449Y-1.0039
X3.4449Y-2.7756
X3.563Y-0.2953
X3.563Y-1.6732
X3.563Y-2.0669
X3.563Y-3.4449
X3.5827Y-0.2953
X3.5827Y-1.6732
X3.5827Y-2.0669
X3.5827Y-3.4449
X3.6024Y-0.2953
X3.6024Y-1.6732
X3.6024Y-2.0669
X3.6024Y-3.4449
X3.622Y-0.2953
X3.622Y-1.6732
X3.622Y-2.0669
X3.622Y-3.4449
X3.6417Y-0.2953
X3.6417Y-1.6732
X3.6417Y-2.0669
X3.6417Y-3.4449
X3.6614Y-0.2953
X3.6614Y-1.6732
X3.6614Y-2.0669
X3.6614Y-3.4449
X3.6811Y-0.2953
X3.6811Y-1.6732
X3.6811Y-2.0669
X3.6811Y-3.4449
X3.7008Y-0.2953
X3.7008Y-1.6732
X3.7008Y-2.0669
X3.7008Y-3.4449
X3.7205Y-0.2953
X3.7205Y-1.6732
X3.7205Y-2.0669
X3.7205Y-3.4449
T2
X0.0984Y-0.0984
X0.0984Y-3.6417
X3.6417Y-3.6417
M30
