M48
; DRILL file {KiCad 8.99.0-2433-g53022ab347} date 2024-09-29T16:40:13+0200
; FORMAT={-:-/ absolute / inch / decimal}
; #@! TF.CreationDate,2024-09-29T16:40:13+02:00
; #@! TF.GenerationSoftware,Kicad,Pcbnew,8.99.0-2433-g53022ab347
; #@! TF.FileFunction,Plated,1,2,PTH
FMAT,2
INCH
; #@! TA.AperFunction,Plated,PTH,ViaDrill
T1C0.0118
; #@! TA.AperFunction,Plated,PTH,ViaDrill
T2C0.0157
; #@! TA.AperFunction,Plated,PTH,ComponentDrill
T3C0.0400
%
G90
G05
T1
X0.9193Y-0.811
X0.9193Y-2.5827
X0.9616Y-0.8533
X0.9616Y-2.625
X0.9744Y-0.7293
X0.9744Y-2.501
X1.0079Y-0.85
X1.0079Y-2.6217
X1.0776Y-0.7283
X1.0776Y-2.5
X2.6909Y-0.811
X2.6909Y-2.5827
X2.7332Y-0.8533
X2.7332Y-2.625
X2.7461Y-0.7293
X2.7461Y-2.501
X2.7795Y-0.85
X2.7795Y-2.6217
X2.8492Y-0.7283
X2.8492Y-2.5
T2
X0.4596Y-1.0197
X0.4596Y-2.7913
X0.5Y-0.7579
X0.5Y-2.5295
X0.5531Y-1.3002
X0.5531Y-3.0719
X0.5561Y-0.9843
X0.5561Y-2.7559
X0.6683Y-0.5443
X0.6683Y-2.3159
X0.7608Y-1.4646
X0.7608Y-3.2362
X0.9478Y-0.4587
X0.9478Y-2.2303
X0.9843Y-1.4193
X0.9843Y-3.1909
X1.0207Y-1.5118
X1.0207Y-3.2835
X1.062Y-0.5906
X1.062Y-2.3622
X1.063Y-0.6693
X1.063Y-2.4409
X1.2116Y-0.5
X1.2116Y-2.2717
X1.3002Y-1.4183
X1.3002Y-3.19
X1.4124Y-0.9843
X1.4124Y-2.7559
X1.4163Y-0.6683
X1.4163Y-2.44
X1.4665Y-1.2087
X1.4665Y-2.9803
X1.5138Y-0.9488
X1.5138Y-2.7205
X2.2313Y-1.0197
X2.2313Y-2.7913
X2.2717Y-0.7579
X2.2717Y-2.5295
X2.3248Y-1.3002
X2.3248Y-3.0719
X2.3278Y-0.9843
X2.3278Y-2.7559
X2.44Y-0.5443
X2.44Y-2.3159
X2.5325Y-1.4646
X2.5325Y-3.2362
X2.7195Y-0.4587
X2.7195Y-2.2303
X2.7559Y-1.4193
X2.7559Y-3.1909
X2.7923Y-1.5118
X2.7923Y-3.2835
X2.8337Y-0.5906
X2.8337Y-2.3622
X2.8346Y-0.6693
X2.8346Y-2.4409
X2.9833Y-0.5
X2.9833Y-2.2717
X3.0719Y-1.4183
X3.0719Y-3.19
X3.1841Y-0.9843
X3.1841Y-2.7559
X3.188Y-0.6683
X3.188Y-2.44
X3.2382Y-1.2087
X3.2382Y-2.9803
X3.2854Y-0.9488
X3.2854Y-2.7205
T3
X0.8866Y-0.935
X0.8866Y-1.035
X0.8866Y-2.7067
X0.8866Y-2.8067
X0.9866Y-0.935
X0.9866Y-1.035
X0.9866Y-2.7067
X0.9866Y-2.8067
X1.0866Y-0.935
X1.0866Y-1.035
X1.0866Y-2.7067
X1.0866Y-2.8067
X2.6583Y-0.935
X2.6583Y-1.035
X2.6583Y-2.7067
X2.6583Y-2.8067
X2.7583Y-0.935
X2.7583Y-1.035
X2.7583Y-2.7067
X2.7583Y-2.8067
X2.8583Y-0.935
X2.8583Y-1.035
X2.8583Y-2.7067
X2.8583Y-2.8067
M30
